<svg width="450" height="378" viewBox="0 0 450 378" fill="none" xmlns="http://www.w3.org/2000/svg">
<g id="background-line">
<path id="Vector" d="M1 347.349L449 347.349" stroke="#F9A429" stroke-width="2" stroke-linecap="round"/>
<path id="Vector_2" d="M1 293.562L449 293.562" stroke="#F9A429" stroke-width="2" stroke-linecap="round"/>
<path id="Vector_3" d="M1 234.234L449 234.234" stroke="#F9A429" stroke-width="2" stroke-linecap="round"/>
<path id="Vector_4" d="M1 180.448L449 180.448" stroke="#F9A429" stroke-width="2" stroke-linecap="round"/>
<path id="Vector_5" d="M1 117.656L449 117.656" stroke="#F9A429" stroke-width="2" stroke-linecap="round"/>
<path id="Vector_6" d="M1 63.8698L449 63.8698" stroke="#F9A429" stroke-width="2" stroke-linecap="round"/>
<path id="Vector_7" d="M86.8542 376.224L89.7448 2.20817" stroke="#F9A429" stroke-width="2" stroke-linecap="round"/>
<path id="Vector_8" d="M33.0677 376.229L34.9271 2.19259" stroke="#F9A429" stroke-width="2" stroke-linecap="round"/>
<path id="Vector_9" d="M146.318 375.792L148.177 1.76028" stroke="#F9A429" stroke-width="2" stroke-linecap="round"/>
<path id="Vector_10" d="M312.224 376.224L315.115 2.20809" stroke="#F9A429" stroke-width="2" stroke-linecap="round"/>
<path id="Vector_11" d="M258.443 376.229L260.297 2.19253" stroke="#F9A429" stroke-width="2" stroke-linecap="round"/>
<path id="Vector_12" d="M425.443 376.224L428.333 2.20809" stroke="#F9A429" stroke-width="2" stroke-linecap="round"/>
<path id="Vector_13" d="M371.656 376.229L373.516 2.19256" stroke="#F9A429" stroke-width="2" stroke-linecap="round"/>
<path id="Vector_14" d="M200.104 375.792L202.995 1.77062" stroke="#F9A429" stroke-width="2" stroke-linecap="round"/>
</g>
<g id="chart-kiri10">
<mask id="mask0_0_1" style="mask-type:luminance" maskUnits="userSpaceOnUse" x="40" y="76" width="32" height="133">
<g id="56607add4d">
<path id="Vector_15" d="M40.8438 76H71.7292V209H40.8438V76Z" fill="white"/>
</g>
</mask>
<g mask="url(#mask0_0_1)">
<g id="Group">
<path id="Vector_16" d="M40.8438 76H71.7292V209H40.8438V76Z" fill="#FF3131"/>
</g>
</g>
</g>
<g id="chart-kiri9">
<mask id="mask1_0_1" style="mask-type:luminance" maskUnits="userSpaceOnUse" x="80" y="167" width="32" height="127">
<g id="91b41c730a">
<path id="Vector_17" d="M80.2188 167H111.109V294H80.2188V167Z" fill="white"/>
</g>
</mask>
<g mask="url(#mask1_0_1)">
<g id="Group_2">
<path id="Vector_18" d="M80.2188 167H111.109V294H80.2188V167Z" fill="#5AA96B"/>
</g>
</g>
</g>
<g id="chart-kiri8">
<mask id="mask2_0_1" style="mask-type:luminance" maskUnits="userSpaceOnUse" x="119" y="202" width="31" height="146">
<g id="fc37300e71">
<path id="Vector_19" d="M119.76 202H149.297V347.349H119.76V202Z" fill="white"/>
</g>
</mask>
<g mask="url(#mask2_0_1)">
<g id="Group_3">
<path id="Vector_20" d="M119.76 202H149.297V347.349H119.76V202Z" fill="#FF3131"/>
</g>
</g>
</g>
<g id="chart-kiri7">
<mask id="mask3_0_1" style="mask-type:luminance" maskUnits="userSpaceOnUse" x="159" y="182" width="30" height="82">
<g id="778a62f4c7">
<path id="Vector_21" d="M159.297 182H188.677V263.656H159.297V182Z" fill="white"/>
</g>
</mask>
<g mask="url(#mask3_0_1)">
<g id="Group_4">
<path id="Vector_22" d="M159.297 182H188.677V263.656H159.297V182Z" fill="#5AA96B"/>
</g>
</g>
</g>
<g id="chart-kiri6">
<mask id="mask4_0_1" style="mask-type:luminance" maskUnits="userSpaceOnUse" x="198" y="101" width="31" height="108">
<g id="7429f04d91">
<path id="Vector_23" d="M198.677 101.844H228.214V209H198.677V101.844Z" fill="white"/>
</g>
</mask>
<g mask="url(#mask4_0_1)">
<g id="Group_5">
<path id="Vector_24" d="M198.677 101.844H228.214V209H198.677V101.844Z" fill="#5AA96B"/>
</g>
</g>
</g>
<g id="chart-kiri5">
<mask id="mask5_0_1" style="mask-type:luminance" maskUnits="userSpaceOnUse" x="238" y="101" width="30" height="191">
<g id="79caebaa9a">
<path id="Vector_25" d="M238.214 101.844H267.75V291.562H238.214V101.844Z" fill="white"/>
</g>
</mask>
<g mask="url(#mask5_0_1)">
<g id="Group_6">
<path id="Vector_26" d="M238.214 101.844H267.75V291.562H238.214V101.844Z" fill="#FF3131"/>
</g>
</g>
</g>
<g id="chart-kiri4">
<mask id="mask6_0_1" style="mask-type:luminance" maskUnits="userSpaceOnUse" x="277" y="155" width="30" height="123">
<g id="318423d70a">
<path id="Vector_27" d="M277.75 155.188H306.224V277.5H277.75V155.188Z" fill="white"/>
</g>
</mask>
<g mask="url(#mask6_0_1)">
<g id="Group_7">
<path id="Vector_28" d="M277.75 155.188H306.224V277.5H277.75V155.188Z" fill="#5AA96B"/>
</g>
</g>
</g>
<g id="chart-kiri3">
<mask id="mask7_0_1" style="mask-type:luminance" maskUnits="userSpaceOnUse" x="317" y="155" width="31" height="193">
<g id="425ab92d5f">
<path id="Vector_29" d="M317.13 155.188H347.224V347.349H317.13V155.188Z" fill="white"/>
</g>
</mask>
<g mask="url(#mask7_0_1)">
<g id="Group_8">
<path id="Vector_30" d="M317.13 155.188H347.224V347.349H317.13V155.188Z" fill="#FF3131"/>
</g>
</g>
</g>
<g id="chart-kiri2">
<mask id="mask8_0_1" style="mask-type:luminance" maskUnits="userSpaceOnUse" x="356" y="133" width="32" height="145">
<g id="285e50490a">
<path id="Vector_31" d="M356.672 133.656H387.557V277.5H356.672V133.656Z" fill="white"/>
</g>
</mask>
<g mask="url(#mask8_0_1)">
<g id="Group_9">
<path id="Vector_32" d="M356.672 133.656H387.557V277.5H356.672V133.656Z" fill="#5AA96B"/>
</g>
</g>
</g>
<g id="chart-kiri">
<mask id="mask9_0_1" style="mask-type:luminance" maskUnits="userSpaceOnUse" x="400" y="1" width="31" height="277">
<g id="2334e79749">
<path id="Vector_33" d="M400 1.20834H430.885V277.5H400V1.20834Z" fill="white"/>
</g>
</mask>
<g mask="url(#mask9_0_1)">
<g id="Group_10">
<path id="Vector_34" d="M400 1.20834H430.885V277.5H400V1.20834Z" fill="#5AA96B"/>
</g>
</g>
</g>
<g id="girl-statis">
<path id="Vector_35" d="M353.25 33.7239C353.25 33.7239 360.714 27.2292 369 31.125C377.281 35.0208 377.599 40.5417 379.391 48.8177C381.177 57.0937 389.615 63.7552 392.865 48.8177C392.865 48.8177 397.245 74.1406 381.177 69.2708C365.109 64.401 351.12 60.3385 351.12 60.3385L349.411 42.6094C349.078 39.1823 350.536 35.8229 353.26 33.7187L353.25 33.7239Z" fill="#312241"/>
<path id="Vector_36" d="M305.198 49.3073C305.198 49.3073 298.214 27.5521 316.234 16.6771C334.255 5.80208 352.068 19.0677 352.094 43.3594L341.557 56.2865L309.01 54.9948L305.198 49.3073Z" fill="#312241"/>
<path id="Vector_37" d="M379.385 148.411C379.385 148.411 377.432 154.984 367.698 156.932C357.958 158.885 313.151 157.667 313.151 157.667L303.865 130.396H306.24L294.714 113.224L329.057 112.854L379.38 148.411H379.385Z" fill="#FFE8B8"/>
<g id="Clip path group">
<mask id="mask10_0_1" style="mask-type:luminance" maskUnits="userSpaceOnUse" x="323" y="48" width="79" height="105">
<g id="3aba7d4bc7">
<path id="Vector_38" d="M323 48.3333H401.984V152.333H323V48.3333Z" fill="white"/>
</g>
</mask>
<g mask="url(#mask10_0_1)">
<g id="Group_11">
<path id="Vector_39" d="M387.906 89C388.448 93.4479 394.234 99.2292 394.234 99.2292L390.802 101.328L393.5 120.656L402.271 147.927C384.979 156.698 378.891 151.094 366.229 142.328C353.573 133.563 326.786 124.797 326.786 124.797L323.865 87.2969C323.375 73.1719 325.323 68.5417 325.323 68.5417C325.323 68.5417 330.193 66.599 336.854 70.6459C343.51 74.6927 348.214 81.6979 348.214 81.6979C348.214 81.6979 351.625 82.9688 349.922 69.2761C349.922 69.2761 361.958 62.3386 359.344 48.7604C359.344 48.7604 360.391 47.6042 364.036 49.9167C367.687 52.2292 368.542 54.7865 373.896 54.2969L370.854 58.1927C370.854 58.1927 384.734 63.0625 387.901 88.9948L387.906 89Z" fill="#800000"/>
</g>
</g>
</g>
<path id="Vector_40" d="M386.526 103.854C386.526 103.854 387.661 126.745 373.859 129.828C360.062 132.911 332.141 105.156 332.141 105.156L339.125 91.6771C339.125 91.6771 347.245 103.203 355.844 106.125C364.448 109.047 368.021 112.453 368.021 112.453V102.208C378.771 107.865 386.526 103.854 386.526 103.854Z" fill="#FF967A"/>
<path id="Vector_41" d="M366.229 57.099C366.229 57.099 361.651 61.1823 357.786 66.1094C356.651 67.5677 352.745 66.25 352.568 68.4636C351.542 81.2083 348.974 80.6615 348.698 85.1823C348.698 85.1823 343.651 76.224 335.557 71.6615C328.922 76.0677 320.781 70.0886 320.781 70.0886C318.505 71.7136 315.911 69.2761 315.911 69.2761C316.88 66.0313 315.26 63.1042 310.396 58.724C305.526 54.3438 305.203 49.3125 305.203 49.3125C310.557 56.2917 323.599 41.0313 323.599 41.0313C328.792 57.9167 336.859 42.4948 336.859 42.4948L339.13 47.5261C339.13 47.5261 337.995 41.5208 342.536 38.1146C347.083 34.7031 353.255 40.3854 352.932 49.3177C352.891 50.3333 352.766 51.1823 352.578 51.9063L353.74 53.6979L366.234 57.1042L366.229 57.099Z" fill="#FF967A"/>
<path id="Vector_42" d="M305.198 126.255L313.151 157.667C313.151 157.667 303.531 157.422 297.688 157.422C291.844 157.422 282.104 160.589 281.01 160.953C279.917 161.323 260.068 170.089 253.74 170.693C247.411 171.297 234.745 173.615 234.745 173.615L226.953 160.344L230.359 159.49L226.339 151.208C226.339 151.208 245.089 138.854 252.031 135.448C258.969 132.036 267.859 127.224 275.406 118.948C282.958 110.672 294.719 113.224 294.719 113.224L305.198 126.255Z" fill="#FF967A"/>
<path id="Vector_43" d="M281.005 95.526C281.005 95.526 281.974 85.8385 281.974 80.2344C281.974 74.6354 280.203 70.6458 280.203 70.6458L294.714 81.9375C294.714 81.9375 310.385 77.2865 313.146 73.2865L315.526 77.2708L318.745 74.3906L323.589 81.2083L332.135 77.7969L340.417 97.0937L296.812 110.875L281 95.526H281.005Z" fill="#FFE8B8"/>
<path id="Vector_44" d="M313.151 73.2812C313.151 73.2812 312.661 76.0937 299.495 80.3697C286.323 84.6406 282.307 93.7864 282.307 93.7864C282.307 93.7864 314.453 80.4739 318.75 74.3854L323.594 81.2031L313.151 84.7343" stroke="#312241" stroke-width="0.530973" stroke-linecap="round" stroke-linejoin="round"/>
<path id="Vector_45" d="M306.406 86.8072L282.307 93.7864" stroke="#312241" stroke-width="0.530973" stroke-miterlimit="10" stroke-linecap="round"/>
<path id="Vector_46" d="M332.141 77.7968L336.208 87.2812" stroke="#312241" stroke-width="0.530973" stroke-miterlimit="10" stroke-linecap="round"/>
<path id="Vector_47" d="M367.698 133.562L318.26 139.406L279.062 95.8177V85.1823L274.438 73.2812H275.896L281.01 84.5469V95.5208L337.745 87.0469L367.698 133.557V133.562Z" fill="#D04B27"/>
<path id="Vector_48" d="M291.562 100.135L314.812 96.6615L335.307 126.745L314.812 129.047L291.562 100.135Z" fill="#312241"/>
<g id="Clip path group_2">
<mask id="mask11_0_1" style="mask-type:luminance" maskUnits="userSpaceOnUse" x="295" y="96" width="36" height="34">
<g id="b1a44b47e1">
<path id="Vector_49" d="M295 96.3333H331V129.125H295V96.3333Z" fill="white"/>
</g>
</mask>
<g mask="url(#mask11_0_1)">
<g id="Group_12">
<g id="Clip path group_3">
<mask id="mask12_0_1" style="mask-type:luminance" maskUnits="userSpaceOnUse" x="291" y="96" width="45" height="34">
<g id="6ea9dd9621">
<path id="Vector_50" d="M291.562 100.135L314.812 96.6615L335.307 126.745L314.812 129.047L291.562 100.135Z" fill="white"/>
</g>
</mask>
<g mask="url(#mask12_0_1)">
<g id="Group_13">
<path id="Vector_51" d="M312.052 115.844L311.719 116.318H311.464L311.755 116.875L312.047 117.276V117.979L312.339 118.161V118.75L312.818 118.938V119.302L313.255 119.896L314.031 120.078L313.807 120.406L314.031 121L313.552 121.182L313.443 121.99L313.625 122.25L314.031 122.693L314.219 123.469L314.771 123.208L315.448 123.464H315.818L316.016 124.573L315.792 125.198L316.344 125.422V125.714L316.568 126.339H317.083V125.786L317.411 126.047L317.323 127.24L318.042 126.635L318.958 127.703H319.401V128.255L320.172 128.625L320.615 129.026L321.354 129.578L322.016 129.729L322.682 130.13L323.932 129.26L324.484 129.469L324.927 130.385L325.771 130.792L326.911 131.266L327.172 131.083L327.875 131.266H328.62L328.865 131.557H329.234V130.344L329.75 130.083V129.823L330.411 129.786V129.25H330.12L329.896 128.167L329.016 127.542L328.208 126.51L328.625 125.406L328.469 124.927L327.693 124.781V124.224L327.583 123.932L327.031 122.906L327.469 122.615L327.141 122.135L327.068 121.62L326.661 120.995L327.104 121.068C327.104 121.068 327.396 120.776 327.432 120.589C327.469 120.401 327.286 119.484 327.286 119.484L326.953 119.193L326.479 119.266L325.964 118.828H325.635L325.005 118.021L324.125 118.057L323.797 117.833L323.318 117.688L322.693 117.391L322.063 117.724L321.953 117.536L321.328 118.313C321.328 118.313 320.443 118.125 320.443 118.276C320.443 118.422 320.74 119.083 320.74 119.083L319.635 119.042L318.969 119.302L317.974 118.938L317.464 118.495L316.469 118.094L315.917 117.432L315.141 117.172L315.365 116.365L314.922 116.031L313.891 116.51L313.781 116.771L312.974 116.583L312.609 116.182L312.057 115.854L312.052 115.844ZM322.641 107.917V109.948L321.719 110.641L320.844 111.328L320.219 111.245L320.089 111.505V111.932L320.219 112.453H319.969L319.427 112.068V112.672L318.922 113.193L318.672 113.714H318.422L318.25 113.068L318.38 112.286L317.958 111.938L317.833 111.51L317.943 111.453L317.729 111.286L317.771 110.984H317.036L316.516 110.078L316.646 109.344L316.297 108.651L316.078 107.828L316.297 107.443L316.646 106.75H318.828L319.151 106.49V105.406L318.828 104.63L318.198 104.37V103.245L317.938 102.583L317.464 102.292L317.115 101.771H316.292V102.203L315.771 102.245L315.25 101.984L314.865 101.854L314.688 102.286C314.516 102.719 314.474 102.547 314.474 102.547H313.953V101.943L314.339 101.292L313.953 100.563L313.734 100.042L313.411 100.214L313 99.9531L313.13 99.0469H312.479L312.698 98.7031V98.3125L313.344 97.9271L313.693 98.3125H314.339L313.953 97.5365L313.693 96.7552L313.703 96.7448L313.63 96.7136L313.214 96.3646L314.01 95.9375L314.219 96.0625L314.885 96.1927L315.094 95.9323L315.635 96.1927L316.344 95.9323L316.391 95.4531L316.594 95.1927L317.182 95.4948L317.911 95.7552L318.266 95.9323L318.354 96.1511V96.5365L318.563 96.9219L319.146 97.2708L319.896 97.3542L319.438 97.8333L319.396 98.0938L319.104 98.2188L318.516 98.0938L318.432 98.4792L318.349 99.3438L317.906 99.7344V101.073L318.427 101.589L318.849 102.198L319.266 102.625L319.469 102.875L319.542 102.885L319.604 103.047L319.854 103.359L320.526 103.88L320.901 104.057V104.401L321.776 105.182L321.609 105.484L322.193 106.609L322.609 107.906L322.641 107.917ZM316.24 98.4063L316.125 98.4427L316.297 98.5313L316.328 98.5417L316.24 98.4063ZM297.938 106.469L297.583 105.328L296.083 106.469L296.516 106.755L296.083 107.542L297.016 108.615L296.583 109.969L297.438 110.615L297.01 111.547H297.583L298.438 112.542V115.75L299.578 115.396L299.932 115.75H301.651V117.182L302.646 116.682L303.292 116.615V115.828L304.365 116.182L304.719 116.25V116.682L305.927 116.25V116.609H306.359V118.177L309.286 117.104V115.75L309.714 115.396V114.964L310.286 114.323L309.786 113.969V113.396L310.286 112.255L310.573 111.755L311.005 112.328L311.578 111.255H312.151V110.469L311.578 110.115L312.151 108.396L313.005 107.755L313.938 107.969L314.792 107.536L313.219 105.969L312.365 105.323L312.792 104.75L312.651 104.177L311.438 102.464L311.938 102.104L311.297 100.677H308.583L308.229 101.391L308.516 102.599L307.443 103.385L307.87 104.24C307.87 104.24 306.661 104.385 306.943 104.599C307.224 104.807 307.083 105.88 307.083 105.88L305.443 106.526L304.234 106.88L303.734 106.167L302.453 106.24L302.161 106.948L300.521 107.234L299.453 107.448L297.953 106.448L297.938 106.469Z" fill="#800000"/>
</g>
</g>
</g>
</g>
</g>
</g>
<path id="Vector_52" d="M298.38 123.578C298.38 123.578 291.479 117.495 291.641 114.979C291.797 112.458 295.615 102.557 295.615 102.557C295.615 102.557 299.516 99.8802 300.651 107.021C300.651 107.021 303.49 104.349 304.302 104.349C305.115 104.349 307.635 106.859 307.714 110.88C307.714 110.88 309.583 111.49 309.74 115.219C309.901 118.953 310.552 123.5 310.552 123.5L308.885 128.984L310.156 130.396C310.156 130.396 309.656 130.562 306.656 129.182C303.656 127.802 298.38 123.578 298.38 123.578Z" fill="#FF967A"/>
<path id="Vector_53" d="M230.359 159.495L226.953 160.349L234.745 173.62C234.745 173.62 219.484 175.443 212.833 179.823C206.182 184.203 201.63 181.609 197.896 179.823C194.161 178.042 191.078 168.62 189.62 165.703C188.156 162.781 184.583 160.99 180.042 151.943C175.495 142.896 181.01 141.568 181.01 141.568L185.391 143.229C192.698 140.245 194.323 141.021 206.979 147.677C219.641 154.339 226.339 151.208 226.339 151.208L230.359 159.49V159.495Z" fill="#FFE8B8"/>
<g id="Clip path group_4">
<mask id="mask13_0_1" style="mask-type:luminance" maskUnits="userSpaceOnUse" x="221" y="143" width="14" height="34">
<g id="17a014ccfe">
<path id="Vector_54" d="M221.667 143H235V176.333H221.667V143Z" fill="white"/>
</g>
</mask>
<g mask="url(#mask13_0_1)">
<g id="Group_14">
<g id="Clip path group_5">
<mask id="mask14_0_1" style="mask-type:luminance" maskUnits="userSpaceOnUse" x="178" y="141" width="57" height="42">
<g id="00e4b5dc7d">
<path id="Vector_55" d="M230.359 159.495L226.953 160.349L234.745 173.62C234.745 173.62 219.484 175.443 212.833 179.823C206.182 184.203 201.63 181.609 197.896 179.823C194.161 178.042 191.078 168.62 189.62 165.703C188.156 162.781 184.583 160.99 180.042 151.943C175.495 142.896 181.01 141.568 181.01 141.568L185.391 143.229C192.698 140.245 194.323 141.021 206.979 147.677C219.641 154.339 226.339 151.208 226.339 151.208L230.359 159.49V159.495Z" fill="white"/>
</g>
</mask>
<g mask="url(#mask14_0_1)">
<g id="Group_15">
<path id="Vector_56" d="M222.198 152.177L229.87 143.542L237.547 176.182H231.339L222.651 160.87L222.203 152.177" fill="#D04B27"/>
</g>
</g>
</g>
</g>
</g>
</g>
<path id="Vector_57" d="M220.844 160.714L211.677 160.422L193.328 163.906L178.234 135.604L184.807 131.464H191.75C191.75 131.464 200.057 136.948 202.125 142.057C204.531 148.026 220.12 151.917 220.12 151.917L220.844 160.708V160.714Z" fill="#312241"/>
<path id="Vector_58" d="M321.062 69.276C321.062 69.276 321.917 68.4635 321.917 67.1666" stroke="#312241" stroke-width="0.530973" stroke-miterlimit="10" stroke-linecap="round"/>
<path id="Vector_59" d="M336.854 70.6458C336.854 70.6458 346.755 62.7812 346.109 54.5052C346.109 54.5052 351.088 58.5521 352.573 51.901" stroke="#312241" stroke-width="0.530973" stroke-miterlimit="10" stroke-linecap="round"/>
<path id="Vector_60" d="M326.135 57.0989C326.135 57.0989 321.917 54.0156 315.099 55.3177" stroke="#312241" stroke-width="1.06195" stroke-miterlimit="10" stroke-linecap="round"/>
<path id="Vector_61" d="M343.672 41.026C343.672 41.026 341.719 50.1094 347.729 51.8958" stroke="#312241" stroke-width="0.530973" stroke-miterlimit="10" stroke-linecap="round"/>
<path id="Vector_62" d="M350.489 48.8229C350.489 48.8229 346.469 44.7969 343.771 47.5364" stroke="#312241" stroke-width="0.530973" stroke-miterlimit="10" stroke-linecap="round"/>
<path id="Vector_63" d="M322.766 62.7031L324.417 64.7916" stroke="#312241" stroke-width="1.59292" stroke-miterlimit="10" stroke-linecap="round"/>
<path id="Vector_64" d="M348.864 69.276C348.864 69.276 345.016 65.4531 341.984 65.3385" stroke="#312241" stroke-width="0.530973" stroke-miterlimit="10" stroke-linecap="round"/>
<path id="Vector_65" d="M371.755 119.437C371.755 119.437 371.208 113.88 366.234 111.083" stroke="#312241" stroke-width="0.530973" stroke-miterlimit="10" stroke-linecap="round"/>
<path id="Vector_66" d="M298.38 117.979C298.38 117.979 297.854 109.318 300.651 107.016" stroke="#312241" stroke-width="0.530973" stroke-miterlimit="10" stroke-linecap="round"/>
<path id="Vector_67" d="M305.198 122.198C305.198 122.198 304.87 117.083 307.635 112.495" stroke="#312241" stroke-width="0.530973" stroke-miterlimit="10" stroke-linecap="round"/>
<path id="Vector_68" d="M279.062 128.849C279.062 128.849 273.213 126.292 274.437 120.021" stroke="#312241" stroke-width="1.06195" stroke-miterlimit="10" stroke-linecap="round"/>
<path id="Vector_69" d="M231.333 159.047C231.333 159.047 265.583 143.255 270.776 141.573C275.969 139.891 278.734 141.193 283.276 138.271C287.823 135.349 291.745 130.693 299.495 130.068" stroke="#312241" stroke-width="0.530973" stroke-miterlimit="10" stroke-linecap="round"/>
<path id="Vector_70" d="M289.937 139.406C289.937 139.406 291.396 146.068 297.568 147.687" stroke="#312241" stroke-width="1.06195" stroke-miterlimit="10" stroke-linecap="round"/>
<path id="Vector_71" d="M295.614 102.552C295.614 102.552 291 113.109 291.641 114.974C292.281 116.833 294.354 119.963 296.818 122.125C299.281 124.286 302.979 126.984 302.979 126.984" stroke="#312241" stroke-width="0.530973" stroke-miterlimit="10" stroke-linecap="round"/>
<path id="Vector_72" d="M230.359 159.495C230.359 159.495 213.151 162.724 205.521 158.042C197.891 153.364 185.391 143.234 185.391 143.234" stroke="#312241" stroke-width="0.530973" stroke-miterlimit="10" stroke-linecap="round"/>
<path id="Vector_73" d="M202.271 170.573C202.271 170.573 208.521 177.026 217.208 176.094" stroke="#312241" stroke-width="0.530973" stroke-miterlimit="10" stroke-linecap="round"/>
<path id="Vector_74" d="M357.161 137.088C357.161 137.088 374.026 148.979 384.927 152.177" stroke="#312241" stroke-width="1.06195" stroke-miterlimit="10" stroke-linecap="round"/>
<path id="Vector_75" d="M364.041 100.198C364.041 100.198 360.146 76.0937 373.052 69.276" stroke="#312241" stroke-width="1.06195" stroke-miterlimit="10" stroke-linecap="round"/>
<path id="Vector_76" d="M321.016 134.495C320.88 134.583 320.604 134.734 320.219 134.781C319.781 134.828 319.37 134.745 318.948 134.464C318.578 134.219 318.224 133.797 318 133.292C317.563 132.328 317.813 131.562 318.74 131.448C319.063 131.406 319.349 131.453 319.505 131.505L319.578 131.849C319.396 131.792 319.177 131.755 318.896 131.792C318.214 131.88 318 132.417 318.37 133.224C318.75 134.057 319.411 134.5 320.078 134.422C320.323 134.396 320.469 134.339 320.531 134.276L320.063 133.297L319.484 133.365L319.323 133.026L320.26 132.911L321.016 134.5V134.495ZM322.401 132.844L321.281 132.979L321.854 134.172L323.115 134.026L323.297 134.396L321.656 134.578L320.089 131.307L321.615 131.115L321.781 131.458L320.615 131.609L321.109 132.625L322.224 132.49L322.396 132.839L322.401 132.844ZM325.448 132.328C326.042 133.474 325.734 134.167 324.974 134.25C324.193 134.344 323.302 133.714 322.807 132.714C322.292 131.677 322.526 130.938 323.292 130.839C324.078 130.734 324.943 131.354 325.448 132.323V132.328ZM323.203 132.656C323.552 133.365 324.214 133.964 324.818 133.896C325.422 133.828 325.443 133.151 325.052 132.396C324.719 131.745 324.068 131.109 323.443 131.182C322.828 131.26 322.839 131.938 323.203 132.651V132.656ZM329.063 133.568C328.927 133.656 328.641 133.818 328.229 133.859C327.766 133.911 327.323 133.823 326.859 133.542C326.458 133.292 326.063 132.859 325.792 132.344C325.286 131.365 325.516 130.583 326.5 130.453C326.839 130.411 327.151 130.453 327.318 130.516L327.411 130.87C327.208 130.812 326.979 130.771 326.677 130.812C325.964 130.901 325.755 131.453 326.188 132.276C326.63 133.12 327.354 133.578 328.057 133.49C328.313 133.458 328.469 133.401 328.531 133.339L327.99 132.333L327.38 132.406L327.193 132.062L328.182 131.943L329.057 133.562L329.063 133.568ZM327.953 130.354C328.125 130.286 328.391 130.224 328.656 130.193C329.068 130.141 329.38 130.193 329.672 130.354C329.906 130.479 330.12 130.693 330.26 130.948C330.505 131.391 330.422 131.714 330.167 131.87L330.177 131.885C330.464 131.948 330.74 132.172 331.005 132.51C331.375 132.974 331.635 133.297 331.771 133.422L331.354 133.469C331.25 133.38 331.016 133.094 330.693 132.677C330.344 132.224 330.083 132.068 329.714 132.094L329.344 132.135L330.151 133.609L329.755 133.656L327.953 130.359V130.354ZM329.161 131.807L329.563 131.76C329.979 131.708 330.109 131.427 329.896 131.042C329.656 130.62 329.276 130.464 328.859 130.516C328.677 130.536 328.552 130.573 328.5 130.599L329.161 131.802V131.807ZM332.141 132.229L332.427 133.344L332.01 133.391L331.146 129.901L331.615 129.844L334.651 133.094L334.208 133.141L333.24 132.099L332.135 132.234L332.141 132.229ZM332.964 131.766L332.099 130.839C331.911 130.63 331.75 130.438 331.589 130.255H331.578C331.651 130.453 331.714 130.661 331.771 130.875L332.026 131.885L332.958 131.771L332.964 131.766ZM333.146 129.693C333.318 129.63 333.557 129.568 333.875 129.531C334.271 129.484 334.62 129.542 334.917 129.698C335.182 129.833 335.432 130.063 335.615 130.359C335.802 130.661 335.859 130.917 335.807 131.115C335.74 131.391 335.464 131.552 335.063 131.604C334.943 131.62 334.823 131.625 334.719 131.615L335.536 132.995L335.12 133.042L333.146 129.698V129.693ZM334.5 131.25C334.604 131.266 334.724 131.26 334.854 131.25C335.349 131.193 335.495 130.901 335.214 130.432C334.948 129.995 334.526 129.818 334.078 129.87C333.906 129.891 333.776 129.922 333.724 129.948L334.5 131.25ZM335.984 129.286L336.854 130.688L338.401 130.495L337.516 129.089L337.932 129.036L340.099 132.464L339.667 132.51L338.641 130.88L337.078 131.068L338.078 132.688L337.661 132.734L335.578 129.323L335.979 129.271L335.984 129.286ZM341.552 132.302L340.594 130.823L338.323 128.995L338.797 128.938L339.849 129.807C340.141 130.052 340.37 130.25 340.625 130.469H340.641C340.583 130.234 340.552 130 340.51 129.724L340.375 128.729L340.849 128.672L341.031 130.76L342 132.25L341.563 132.297L341.552 132.302Z" fill="#FFE8B8"/>
<path id="Vector_77" d="M304.245 44.8229C304.245 44.8229 319.562 61.224 348.865 27.0781C348.865 27.0781 340.547 1.29687 316.234 16.6771C299.495 27.2708 304.245 44.8177 304.245 44.8177V44.8229Z" fill="#800000"/>
<path id="Vector_78" d="M356.495 70.6458C356.495 70.6458 355.479 84.8333 352.094 87.2812C352.094 87.2812 358.953 93.6979 359.344 96.6615C359.74 99.6302 359.344 105.479 359.344 105.479C359.344 105.479 352.557 98.4948 352.094 95.0885C352.094 95.0885 350.87 100.385 349.052 101.094C349.052 101.094 343.182 93.625 347.729 89.0833L342.693 81.6146L344.708 79.5885L348.703 85.1875C348.703 85.1875 353.005 78.125 352.573 68.4688L356.5 70.651L356.495 70.6458Z" fill="#D04B27"/>
<path id="Vector_79" d="M349.167 82.7552C349.167 82.7552 351.073 77.7969 350.484 69.2083C350.484 69.2083 357.807 66.1615 359.339 48.6927C359.339 48.6927 361.844 46.8073 366.224 50.4583C370.604 54.1094 374.75 53.625 374.75 53.625L359.339 75.5365L352.563 69.2083C352.563 69.2083 352.563 79.0208 349.161 82.7552H349.167Z" fill="#800000"/>
<path id="Vector_80" d="M347.729 24.8073C347.729 24.8073 350.245 17.0052 363.031 13.599L362.932 14.1146C362.193 18.0208 359.557 21.2969 355.911 22.8854C353.641 23.8646 350.849 24.6979 347.729 24.8125V24.8073Z" fill="#800000"/>
<path id="Vector_81" d="M347.505 24.8281C347.505 24.8281 353.125 30.7969 366.135 28.3958L365.828 27.9739C363.479 24.7604 359.698 22.9271 355.724 23.0625C353.255 23.1458 350.375 23.5885 347.505 24.8229V24.8281Z" fill="#800000"/>
<g id="Clip path group_6">
<mask id="mask15_0_1" style="mask-type:luminance" maskUnits="userSpaceOnUse" x="173" y="139" width="50" height="51">
<g id="41b48d728b">
<path id="Vector_82" d="M173.984 139H223V189.188H173.984V139Z" fill="white"/>
</g>
</mask>
<g mask="url(#mask15_0_1)">
<g id="Group_16">
<path id="Vector_83" d="M215.87 159.859L221.766 176.188C221.766 176.188 211.953 183.969 204.286 185.25C202.474 185.552 200.714 186.083 199.021 186.797L192.615 188.719L188.109 175.448L192.99 173.385H187.135L173.984 143.542L180.562 139.401H187.5C187.5 139.401 195.807 144.885 197.875 149.995C200.286 155.964 215.87 159.854 215.87 159.854V159.859Z" fill="#312241"/>
</g>
</g>
</g>
<path id="Vector_84" d="M185.391 139.823H188.844C188.844 139.823 195.104 144.88 198.646 149.823C202.187 154.766 209.219 159.516 211.682 159.672" stroke="#FFE8B8" stroke-width="0.530973" stroke-miterlimit="10" stroke-linecap="round"/>
<path id="Vector_85" d="M185.391 141.573V146.953" stroke="#FFE8B8" stroke-width="0.530973" stroke-miterlimit="10" stroke-linecap="round"/>
<path id="Vector_86" d="M192.062 134.146C192.062 134.146 198.937 137.708 200.219 141.87C201.495 146.031 206.781 149.75 206.781 149.75" stroke="#FFE8B8" stroke-width="0.530973" stroke-miterlimit="10" stroke-linecap="round"/>
<path id="Vector_87" d="M352.568 69.2083L359.344 75.5364L369.463 61.1458" stroke="#312241" stroke-width="0.530973" stroke-miterlimit="10" stroke-linecap="round"/>
<path id="Vector_88" d="M344.708 79.5833L340.422 83.5312L332.141 73.9843" stroke="#312241" stroke-width="0.530973" stroke-linecap="round" stroke-linejoin="round"/>
<path id="Vector_89" d="M347.505 24.8281C347.505 24.8281 338.114 39.3229 326.245 41.026" stroke="#312241" stroke-width="0.530973" stroke-linecap="round" stroke-linejoin="round"/>
<path id="Vector_90" d="M347.729 22.0364C347.729 22.0364 338.859 26.3385 327.953 26.0104C317.047 25.6875 330 23.0573 330 23.0573" stroke="#312241" stroke-width="0.530973" stroke-linecap="round" stroke-linejoin="round"/>
<path id="Vector_91" d="M350.489 24.8281C350.489 24.8281 353.792 22.375 360.87 24.0312" stroke="#312241" stroke-width="0.530973" stroke-linecap="round" stroke-linejoin="round"/>
<path id="Vector_92" d="M351.396 153.911C351.526 153.901 351.651 153.844 351.724 153.724C351.781 153.625 351.792 153.521 351.771 153.422C352.344 152.563 352.682 151.536 352.682 150.432V143.495C352.682 142.391 352.344 141.359 351.771 140.505C351.792 140.406 351.781 140.297 351.724 140.203C351.651 140.083 351.526 140.016 351.396 140.01C350.401 138.844 348.927 138.099 347.281 138.099H340.26C337.281 138.099 334.859 140.521 334.859 143.5V150.438C334.859 153.417 337.281 155.833 340.26 155.833H347.281C348.927 155.833 350.401 155.094 351.396 153.922V153.911ZM351.854 150.427C351.854 151.328 351.589 152.167 351.13 152.88L349.438 151.859C347.568 150.734 346.5 148.948 346.5 146.958C346.5 144.969 347.573 143.182 349.438 142.057L351.13 141.036C351.583 141.75 351.854 142.589 351.854 143.49V150.427ZM340.26 154.995C337.74 154.995 335.688 152.948 335.688 150.427V143.49C335.688 140.969 337.74 138.917 340.26 138.917H347.281C348.599 138.917 349.781 139.479 350.615 140.375L349.005 141.339C346.917 142.599 345.667 144.698 345.667 146.953C345.667 149.208 346.917 151.307 349.005 152.563L350.615 153.531C349.781 154.422 348.599 154.984 347.281 154.984H340.26V154.995Z" fill="#312241"/>
</g>
<g id="coin">
<path id="Vector_93" d="M90.7969 114.714C90.7969 115.453 90.724 116.182 90.5833 116.911C90.4375 117.635 90.224 118.339 89.9375 119.021C89.6563 119.708 89.3125 120.354 88.901 120.969C88.4896 121.583 88.0208 122.156 87.5 122.677C86.974 123.198 86.4063 123.667 85.7917 124.078C85.1771 124.49 84.526 124.839 83.8438 125.12C83.1615 125.401 82.4583 125.615 81.7292 125.76C81.0052 125.906 80.2708 125.979 79.5312 125.979C78.7917 125.979 78.0625 125.906 77.3333 125.76C76.6094 125.615 75.9063 125.401 75.224 125.12C74.5365 124.839 73.8906 124.49 73.276 124.078C72.6615 123.667 72.0885 123.198 71.5677 122.677C71.0469 122.156 70.5781 121.583 70.1667 120.969C69.7552 120.354 69.4063 119.708 69.125 119.021C68.8437 118.339 68.6302 117.635 68.4844 116.911C68.3385 116.182 68.2656 115.453 68.2656 114.714C68.2656 113.974 68.3385 113.24 68.4844 112.516C68.6302 111.786 68.8437 111.083 69.125 110.401C69.4063 109.719 69.7552 109.068 70.1667 108.453C70.5781 107.839 71.0469 107.271 71.5677 106.745C72.0885 106.224 72.6615 105.755 73.276 105.344C73.8906 104.938 74.5365 104.589 75.224 104.307C75.9063 104.021 76.6094 103.807 77.3333 103.661C78.0625 103.521 78.7917 103.448 79.5312 103.448C80.2708 103.448 81.0052 103.521 81.7292 103.661C82.4583 103.807 83.1615 104.021 83.8438 104.307C84.526 104.589 85.1771 104.938 85.7917 105.344C86.4063 105.755 86.974 106.224 87.5 106.745C88.0208 107.271 88.4896 107.839 88.901 108.453C89.3125 109.068 89.6563 109.719 89.9375 110.401C90.224 111.083 90.4375 111.786 90.5833 112.516C90.724 113.24 90.7969 113.974 90.7969 114.714Z" fill="#FFE8B8"/>
<path id="Vector_94" d="M81.2917 117.469V117.432C81.2917 116.974 81.0312 116.714 80.1458 116.458V118.339C80.9323 118.255 81.2917 117.964 81.2917 117.469Z" fill="#5AA96B"/>
<path id="Vector_95" d="M78.5573 111.349C77.7187 111.422 77.3958 111.76 77.3958 112.208V112.24C77.3958 112.682 77.6354 112.943 78.5573 113.198V111.349Z" fill="#5AA96B"/>
<g id="Clip path group_7">
<mask id="mask16_0_1" style="mask-type:luminance" maskUnits="userSpaceOnUse" x="66" y="101" width="28" height="28">
<g id="074474f992">
<path id="Vector_96" d="M66.7292 101.844H93.6667V128.333H66.7292V101.844Z" fill="white"/>
</g>
</mask>
<g mask="url(#mask16_0_1)">
<g id="Group_17">
<path id="Vector_97" d="M89.4219 106.505C89.0989 106.141 88.7552 105.792 88.3958 105.464C88.0364 105.135 87.6562 104.828 87.2604 104.542C86.8594 104.255 86.4479 103.99 86.0208 103.75C85.5989 103.51 85.1562 103.297 84.7083 103.109C84.2552 102.917 83.7969 102.755 83.3281 102.62C82.8594 102.479 82.3854 102.37 81.901 102.286C81.4219 102.203 80.9323 102.146 80.4479 102.115C79.9583 102.089 79.4687 102.089 78.9844 102.115C78.4948 102.141 78.0104 102.193 77.526 102.276C77.0416 102.354 76.5677 102.464 76.0989 102.599C75.6302 102.734 75.1666 102.896 74.7135 103.083C74.2656 103.271 73.8229 103.484 73.3958 103.719C72.9687 103.958 72.5573 104.219 72.1614 104.505C71.7604 104.786 71.3802 105.094 71.0156 105.422C70.651 105.745 70.3073 106.094 69.9844 106.458C69.6614 106.828 69.3594 107.208 69.0781 107.609C68.7864 108.026 68.5156 108.458 68.2708 108.906C67.3489 110.62 66.8437 112.448 66.75 114.391C66.7396 114.609 66.7344 114.828 66.7344 115.052C66.7291 115.573 66.7604 116.094 66.8281 116.609C66.8906 117.13 66.9844 117.641 67.1094 118.151C67.2291 118.656 67.3854 119.151 67.5729 119.641C67.7552 120.13 67.9687 120.604 68.2135 121.068C68.4531 121.531 68.7239 121.974 69.0208 122.406C69.3125 122.833 69.6354 123.245 69.9791 123.635C70.3281 124.026 70.6927 124.396 71.0833 124.745C71.4739 125.089 71.8854 125.411 72.3125 125.708C72.7448 126.005 73.1875 126.276 73.651 126.521C74.1146 126.76 74.5885 126.979 75.0729 127.161C75.5625 127.349 76.0625 127.505 76.5677 127.63C77.0729 127.755 77.5833 127.849 78.1041 127.917C78.6198 127.979 79.1406 128.01 79.6614 128.01C80.1875 128.016 80.7083 127.984 81.2239 127.922C81.7448 127.859 82.2552 127.766 82.7604 127.641C83.2708 127.521 83.7656 127.365 84.2552 127.182C84.7448 127 85.2187 126.786 85.6823 126.542C86.1458 126.302 86.5937 126.036 87.0208 125.74C87.4531 125.443 87.8646 125.125 88.2552 124.776C88.6458 124.432 89.0156 124.068 89.3646 123.677C89.7135 123.286 90.0312 122.88 90.3333 122.448C90.6302 122.021 90.901 121.578 91.1458 121.115C91.3906 120.651 91.6041 120.177 91.7916 119.693C91.9791 119.203 92.1354 118.708 92.2604 118.198C92.3854 117.693 92.4844 117.182 92.5469 116.661C92.6146 116.146 92.6458 115.625 92.651 115.104C92.651 114.583 92.6198 114.063 92.5625 113.542C92.5 113.026 92.4062 112.51 92.2864 112.005C92.1614 111.5 92.0104 111 91.8281 110.51C91.6458 110.021 91.4323 109.547 91.1927 109.083C90.9531 108.62 90.6823 108.172 90.3906 107.74C90.0937 107.313 89.776 106.901 89.4323 106.505H89.4219ZM75.3646 116.839C76.4583 117.609 77.4791 118.068 78.5416 118.24V116.188C75.7916 115.552 74.3906 114.615 74.3906 112.495V112.464C74.3906 110.448 75.8594 109.047 78.4739 108.859V107.885H80.25V108.906C81.5625 109.047 82.7656 109.49 83.8541 110.24L82.4531 112.531C81.75 112.052 80.9896 111.714 80.1614 111.516V113.495C82.875 114.13 84.2448 115.104 84.2448 117.224V117.255C84.2448 119.339 82.6406 120.62 80.2135 120.844V122.516H78.4375V120.797C76.7552 120.635 75.2135 120.073 73.8281 119.104L75.3646 116.839Z" fill="#5AA96B"/>
</g>
</g>
</g>
</g>
<g id="coin_2">
<path id="Vector_98" d="M148.073 153.443C148.073 154.182 148 154.911 147.854 155.641C147.708 156.365 147.495 157.068 147.214 157.75C146.932 158.438 146.583 159.083 146.172 159.698C145.76 160.313 145.292 160.885 144.771 161.406C144.25 161.927 143.677 162.396 143.062 162.807C142.448 163.219 141.802 163.563 141.115 163.849C140.432 164.13 139.729 164.344 139.005 164.49C138.276 164.635 137.547 164.703 136.807 164.703C136.068 164.703 135.333 164.635 134.609 164.49C133.885 164.344 133.177 164.13 132.495 163.849C131.812 163.563 131.161 163.219 130.547 162.807C129.932 162.396 129.365 161.927 128.839 161.406C128.318 160.885 127.849 160.313 127.437 159.698C127.031 159.083 126.682 158.438 126.401 157.75C126.115 157.068 125.901 156.365 125.755 155.641C125.615 154.911 125.542 154.182 125.542 153.443C125.542 152.703 125.615 151.969 125.755 151.245C125.901 150.516 126.115 149.813 126.401 149.13C126.682 148.448 127.031 147.797 127.437 147.182C127.849 146.568 128.318 146 128.839 145.474C129.365 144.953 129.932 144.484 130.547 144.073C131.161 143.661 131.812 143.318 132.495 143.031C133.177 142.75 133.885 142.536 134.609 142.391C135.333 142.25 136.068 142.177 136.807 142.177C137.547 142.177 138.276 142.25 139.005 142.391C139.729 142.536 140.432 142.75 141.115 143.031C141.802 143.318 142.448 143.661 143.062 144.073C143.677 144.484 144.25 144.953 144.771 145.474C145.292 146 145.76 146.568 146.172 147.182C146.583 147.797 146.932 148.448 147.214 149.13C147.495 149.813 147.708 150.516 147.854 151.245C148 151.969 148.073 152.703 148.073 153.443Z" fill="#FFE8B8"/>
<path id="Vector_99" d="M138.562 156.198V156.161C138.562 155.703 138.307 155.443 137.417 155.188V157.068C138.203 156.984 138.562 156.693 138.562 156.198Z" fill="#5AA96B"/>
<path id="Vector_100" d="M135.828 150.078C134.995 150.151 134.667 150.49 134.667 150.938V150.969C134.667 151.411 134.906 151.667 135.828 151.927V150.078Z" fill="#5AA96B"/>
<g id="Clip path group_8">
<mask id="mask17_0_1" style="mask-type:luminance" maskUnits="userSpaceOnUse" x="124" y="140" width="27" height="27">
<g id="f2bdd9c6b4">
<path id="Vector_101" d="M124 140.573H151V167H124V140.573Z" fill="white"/>
</g>
</mask>
<g mask="url(#mask17_0_1)">
<g id="Group_18">
<path id="Vector_102" d="M146.693 145.234C146.375 144.87 146.031 144.521 145.667 144.193C145.307 143.859 144.927 143.552 144.531 143.271C144.135 142.984 143.724 142.719 143.297 142.479C142.87 142.24 142.432 142.026 141.979 141.839C141.531 141.646 141.068 141.484 140.599 141.344C140.13 141.208 139.656 141.099 139.172 141.016C138.693 140.932 138.208 140.875 137.719 140.844C137.229 140.818 136.745 140.818 136.255 140.844C135.766 140.87 135.281 140.922 134.797 141.005C134.318 141.083 133.844 141.193 133.37 141.328C132.901 141.464 132.443 141.625 131.99 141.812C131.536 142 131.099 142.214 130.672 142.448C130.245 142.687 129.828 142.948 129.432 143.234C129.036 143.516 128.651 143.823 128.292 144.151C127.927 144.474 127.583 144.823 127.26 145.188C126.932 145.552 126.63 145.938 126.349 146.339C126.057 146.755 125.792 147.188 125.547 147.635C124.625 149.349 124.115 151.177 124.021 153.12C124.01 153.339 124.005 153.557 124.005 153.781C124.005 154.302 124.036 154.823 124.099 155.339C124.161 155.859 124.255 156.37 124.38 156.875C124.505 157.385 124.661 157.88 124.844 158.37C125.031 158.859 125.24 159.333 125.484 159.797C125.729 160.26 125.995 160.703 126.292 161.135C126.589 161.563 126.906 161.974 127.255 162.365C127.599 162.755 127.969 163.125 128.359 163.474C128.75 163.818 129.156 164.141 129.589 164.438C130.016 164.734 130.464 165.005 130.922 165.25C131.385 165.49 131.859 165.708 132.349 165.891C132.839 166.078 133.333 166.234 133.839 166.359C134.349 166.484 134.859 166.578 135.375 166.646C135.896 166.708 136.417 166.74 136.937 166.74C137.458 166.745 137.979 166.714 138.495 166.651C139.016 166.589 139.526 166.495 140.036 166.37C140.542 166.25 141.042 166.094 141.526 165.911C142.016 165.729 142.495 165.516 142.953 165.271C143.417 165.031 143.865 164.76 144.297 164.469C144.724 164.172 145.135 163.854 145.526 163.505C145.922 163.161 146.292 162.797 146.635 162.406C146.984 162.016 147.307 161.604 147.604 161.177C147.901 160.75 148.172 160.302 148.417 159.844C148.661 159.38 148.875 158.906 149.062 158.422C149.25 157.932 149.406 157.438 149.536 156.927C149.661 156.422 149.755 155.911 149.823 155.391C149.885 154.875 149.922 154.354 149.922 153.833C149.922 153.312 149.896 152.792 149.833 152.271C149.771 151.755 149.682 151.24 149.557 150.734C149.437 150.229 149.281 149.729 149.099 149.24C148.917 148.75 148.703 148.276 148.464 147.812C148.224 147.349 147.958 146.901 147.661 146.469C147.37 146.042 147.047 145.63 146.703 145.234H146.693ZM132.635 155.568C133.729 156.339 134.755 156.797 135.812 156.969V154.917C133.062 154.281 131.661 153.344 131.661 151.224V151.193C131.661 149.177 133.13 147.776 135.745 147.589V146.615H137.521V147.635C138.839 147.776 140.036 148.219 141.125 148.969L139.724 151.26C139.026 150.776 138.26 150.438 137.437 150.245V152.224C140.146 152.854 141.521 153.828 141.521 155.953V155.984C141.521 158.068 139.911 159.349 137.484 159.573V161.245H135.714V159.526C134.026 159.365 132.49 158.802 131.099 157.833L132.635 155.568Z" fill="#5AA96B"/>
</g>
</g>
</g>
</g>
<g id="coin_3">
<path id="Vector_103" d="M219.297 249.188C219.297 249.927 219.224 250.661 219.083 251.385C218.937 252.115 218.724 252.818 218.443 253.5C218.156 254.182 217.812 254.833 217.401 255.448C216.99 256.063 216.521 256.63 216 257.156C215.474 257.677 214.906 258.146 214.292 258.557C213.677 258.969 213.026 259.313 212.344 259.599C211.661 259.88 210.958 260.094 210.229 260.24C209.505 260.38 208.771 260.453 208.031 260.453C207.292 260.453 206.562 260.38 205.839 260.24C205.109 260.094 204.406 259.88 203.724 259.599C203.042 259.313 202.391 258.969 201.776 258.557C201.161 258.146 200.594 257.677 200.068 257.156C199.547 256.63 199.078 256.063 198.667 255.448C198.255 254.833 197.911 254.182 197.625 253.5C197.344 252.818 197.13 252.115 196.984 251.385C196.839 250.661 196.771 249.927 196.771 249.188C196.771 248.448 196.839 247.719 196.984 246.99C197.13 246.266 197.344 245.563 197.625 244.88C197.911 244.198 198.255 243.547 198.667 242.932C199.078 242.318 199.547 241.745 200.068 241.224C200.594 240.703 201.161 240.234 201.776 239.823C202.391 239.411 203.042 239.068 203.724 238.781C204.406 238.5 205.109 238.286 205.839 238.141C206.562 237.995 207.292 237.927 208.031 237.927C208.771 237.927 209.505 237.995 210.229 238.141C210.958 238.286 211.661 238.5 212.344 238.781C213.026 239.068 213.677 239.411 214.292 239.823C214.906 240.234 215.474 240.703 216 241.224C216.521 241.745 216.99 242.318 217.401 242.932C217.812 243.547 218.156 244.198 218.443 244.88C218.724 245.563 218.937 246.266 219.083 246.99C219.224 247.719 219.297 248.448 219.297 249.188Z" fill="#FFE8B8"/>
<path id="Vector_104" d="M209.792 251.948V251.911C209.792 251.448 209.536 251.193 208.646 250.938V252.818C209.432 252.729 209.792 252.443 209.792 251.948Z" fill="#5AA96B"/>
<path id="Vector_105" d="M207.057 245.828C206.219 245.896 205.896 246.24 205.896 246.682V246.719C205.896 247.161 206.135 247.417 207.057 247.677V245.828Z" fill="#5AA96B"/>
<g id="Clip path group_9">
<mask id="mask18_0_1" style="mask-type:luminance" maskUnits="userSpaceOnUse" x="195" y="236" width="27" height="27">
<g id="656b36c1b2">
<path id="Vector_106" d="M195.229 236.333H221.667V263H195.229V236.333Z" fill="white"/>
</g>
</mask>
<g mask="url(#mask18_0_1)">
<g id="Group_19">
<path id="Vector_107" d="M217.922 240.984C217.599 240.615 217.26 240.266 216.896 239.938C216.536 239.609 216.156 239.302 215.76 239.016C215.365 238.729 214.948 238.469 214.526 238.229C214.099 237.99 213.661 237.776 213.208 237.583C212.755 237.396 212.297 237.234 211.828 237.094C211.359 236.958 210.885 236.849 210.401 236.76C209.922 236.677 209.438 236.625 208.948 236.594C208.458 236.563 207.969 236.563 207.484 236.589C206.995 236.615 206.51 236.672 206.026 236.75C205.547 236.833 205.068 236.943 204.599 237.078C204.13 237.214 203.667 237.375 203.219 237.563C202.766 237.75 202.328 237.964 201.896 238.198C201.469 238.438 201.057 238.698 200.661 238.979C200.26 239.266 199.88 239.568 199.516 239.896C199.156 240.224 198.813 240.573 198.484 240.938C198.161 241.302 197.859 241.688 197.578 242.089C197.286 242.505 197.016 242.938 196.776 243.385C195.854 245.099 195.344 246.927 195.25 248.87C195.24 249.089 195.234 249.307 195.234 249.526C195.234 250.052 195.266 250.573 195.328 251.089C195.391 251.604 195.484 252.12 195.609 252.625C195.734 253.135 195.885 253.63 196.073 254.12C196.255 254.604 196.469 255.083 196.714 255.547C196.953 256.005 197.224 256.453 197.521 256.88C197.818 257.313 198.135 257.724 198.484 258.115C198.828 258.505 199.198 258.875 199.589 259.219C199.974 259.568 200.385 259.891 200.818 260.188C201.245 260.484 201.688 260.755 202.151 260.995C202.615 261.24 203.089 261.453 203.578 261.641C204.062 261.828 204.563 261.984 205.068 262.109C205.573 262.234 206.089 262.328 206.604 262.391C207.125 262.458 207.641 262.49 208.167 262.49C208.688 262.49 209.208 262.458 209.724 262.401C210.245 262.339 210.755 262.245 211.26 262.12C211.771 261.995 212.266 261.844 212.755 261.661C213.245 261.474 213.719 261.26 214.182 261.021C214.646 260.781 215.094 260.51 215.521 260.219C215.953 259.922 216.365 259.599 216.755 259.255C217.146 258.911 217.516 258.542 217.865 258.156C218.214 257.766 218.536 257.354 218.833 256.927C219.13 256.5 219.401 256.052 219.646 255.594C219.891 255.13 220.104 254.656 220.292 254.167C220.479 253.682 220.635 253.182 220.76 252.677C220.891 252.172 220.984 251.661 221.047 251.141C221.115 250.625 221.146 250.104 221.151 249.583C221.151 249.057 221.12 248.542 221.062 248.021C221 247.505 220.906 246.99 220.786 246.484C220.661 245.974 220.51 245.479 220.328 244.99C220.146 244.5 219.932 244.026 219.693 243.563C219.453 243.099 219.182 242.651 218.891 242.219C218.594 241.786 218.276 241.375 217.932 240.984H217.922ZM203.865 251.318C204.958 252.089 205.984 252.547 207.042 252.719V250.661C204.292 250.031 202.891 249.094 202.891 246.974V246.938C202.891 244.922 204.359 243.521 206.974 243.333V242.359H208.75V243.385C210.062 243.526 211.266 243.969 212.354 244.719L210.953 247.005C210.25 246.526 209.49 246.188 208.661 245.99V247.974C211.375 248.604 212.745 249.578 212.745 251.698V251.734C212.745 253.818 211.141 255.099 208.714 255.323V256.995H206.938V255.276C205.255 255.115 203.719 254.552 202.328 253.583L203.865 251.318Z" fill="#5AA96B"/>
</g>
</g>
</g>
</g>
<g id="coin_4">
<path id="Vector_108" d="M219.297 62.0729C219.297 62.8125 219.224 63.5417 219.083 64.2708C218.937 64.9948 218.724 65.6979 218.443 66.3802C218.156 67.0677 217.812 67.7135 217.401 68.3281C216.99 68.9427 216.521 69.5156 216 70.0365C215.474 70.5573 214.906 71.026 214.292 71.4375C213.677 71.849 213.026 72.1979 212.344 72.4792C211.661 72.7604 210.958 72.974 210.229 73.1198C209.505 73.2656 208.771 73.3333 208.031 73.3333C207.292 73.3333 206.562 73.2656 205.839 73.1198C205.109 72.974 204.406 72.7604 203.724 72.4792C203.042 72.1979 202.391 71.849 201.776 71.4375C201.161 71.026 200.594 70.5573 200.068 70.0365C199.547 69.5156 199.078 68.9427 198.667 68.3281C198.255 67.7135 197.911 67.0677 197.625 66.3802C197.344 65.6979 197.13 64.9948 196.984 64.2708C196.839 63.5417 196.771 62.8125 196.771 62.0729C196.771 61.3333 196.839 60.599 196.984 59.875C197.13 59.1458 197.344 58.4427 197.625 57.7604C197.911 57.0781 198.255 56.4271 198.667 55.8125C199.078 55.1979 199.547 54.6302 200.068 54.1042C200.594 53.5833 201.161 53.1146 201.776 52.7031C202.391 52.2917 203.042 51.9479 203.724 51.6667C204.406 51.3802 205.109 51.1667 205.839 51.0208C206.562 50.8802 207.292 50.8073 208.031 50.8073C208.771 50.8073 209.505 50.8802 210.229 51.0208C210.958 51.1667 211.661 51.3802 212.344 51.6667C213.026 51.9479 213.677 52.2917 214.292 52.7031C214.906 53.1146 215.474 53.5833 216 54.1042C216.521 54.6302 216.99 55.1979 217.401 55.8125C217.812 56.4271 218.156 57.0781 218.443 57.7604C218.724 58.4427 218.937 59.1458 219.083 59.875C219.224 60.599 219.297 61.3333 219.297 62.0729Z" fill="#FFE8B8"/>
<path id="Vector_109" d="M209.792 64.8281V64.7917C209.792 64.3333 209.536 64.0729 208.646 63.8177V65.6979C209.432 65.6146 209.792 65.3229 209.792 64.8281Z" fill="#5AA96B"/>
<path id="Vector_110" d="M207.057 58.7083C206.219 58.7813 205.896 59.1198 205.896 59.5677V59.599C205.896 60.0417 206.135 60.2969 207.057 60.5573V58.7083Z" fill="#5AA96B"/>
<g id="Clip path group_10">
<mask id="mask19_0_1" style="mask-type:luminance" maskUnits="userSpaceOnUse" x="195" y="49" width="27" height="28">
<g id="f991651724">
<path id="Vector_111" d="M195.229 49.2031H221.667V76.2031H195.229V49.2031Z" fill="white"/>
</g>
</mask>
<g mask="url(#mask19_0_1)">
<g id="Group_20">
<path id="Vector_112" d="M217.922 53.8646C217.599 53.5 217.26 53.1511 216.896 52.8229C216.536 52.4896 216.156 52.1823 215.76 51.9011C215.365 51.6146 214.948 51.349 214.526 51.1094C214.099 50.8698 213.661 50.6563 213.208 50.4688C212.755 50.2761 212.297 50.1146 211.828 49.974C211.359 49.8386 210.885 49.7292 210.401 49.6458C209.922 49.5625 209.438 49.5052 208.948 49.474C208.458 49.4479 207.969 49.4479 207.484 49.474C206.995 49.5 206.51 49.5521 206.026 49.6354C205.547 49.7136 205.068 49.8229 204.599 49.9583C204.13 50.0938 203.667 50.2552 203.219 50.4427C202.766 50.6302 202.328 50.8438 201.896 51.0781C201.469 51.3177 201.057 51.5781 200.661 51.8646C200.26 52.1458 199.88 52.4531 199.516 52.7813C199.156 53.1042 198.813 53.4531 198.484 53.8177C198.161 54.1875 197.859 54.5677 197.578 54.9688C197.286 55.3854 197.016 55.8177 196.776 56.2656C195.854 57.9792 195.344 59.8073 195.25 61.75C195.24 61.9688 195.234 62.1875 195.234 62.4115C195.234 62.9323 195.266 63.4531 195.328 63.9688C195.391 64.4896 195.484 65 195.609 65.5052C195.734 66.0156 195.885 66.5104 196.073 67C196.255 67.4896 196.469 67.9636 196.714 68.4271C196.953 68.8906 197.224 69.3333 197.521 69.7656C197.818 70.1927 198.135 70.6042 198.484 70.9948C198.828 71.3854 199.198 71.7552 199.589 72.1042C199.974 72.4479 200.385 72.7708 200.818 73.0677C201.245 73.3646 201.688 73.6354 202.151 73.8802C202.615 74.1198 203.089 74.3386 203.578 74.5208C204.062 74.7083 204.563 74.8646 205.068 74.9896C205.573 75.1146 206.089 75.2083 206.604 75.2761C207.125 75.3386 207.641 75.3698 208.167 75.3698C208.688 75.375 209.208 75.3438 209.724 75.2813C210.245 75.2188 210.755 75.125 211.26 75C211.771 74.8802 212.266 74.724 212.755 74.5417C213.245 74.3594 213.719 74.1458 214.182 73.9011C214.646 73.6615 215.094 73.3958 215.521 73.099C215.953 72.8021 216.365 72.4844 216.755 72.1354C217.146 71.7917 217.516 71.4271 217.865 71.0365C218.214 70.6458 218.536 70.2344 218.833 69.8073C219.13 69.3802 219.401 68.9323 219.646 68.474C219.891 68.0104 220.104 67.5365 220.292 67.0521C220.479 66.5625 220.635 66.0677 220.76 65.5573C220.891 65.0521 220.984 64.5417 221.047 64.0208C221.115 63.5052 221.146 62.9844 221.151 62.4636C221.151 61.9427 221.12 61.4219 221.062 60.9011C221 60.3854 220.906 59.8698 220.786 59.3646C220.661 58.8594 220.51 58.3594 220.328 57.8698C220.146 57.3802 219.932 56.9063 219.693 56.4427C219.453 55.9792 219.182 55.5313 218.891 55.099C218.594 54.6719 218.276 54.2604 217.932 53.8646H217.922ZM203.865 64.1979C204.958 64.9688 205.984 65.4271 207.042 65.599V63.5469C204.292 62.9115 202.891 61.974 202.891 59.8542V59.8229C202.891 57.8073 204.359 56.4063 206.974 56.2188V55.2448H208.75V56.2656C210.062 56.4063 211.266 56.849 212.354 57.599L210.953 59.8906C210.25 59.4115 209.49 59.0677 208.661 58.875V60.8542C211.375 61.4844 212.745 62.4583 212.745 64.5833V64.6146C212.745 66.6979 211.141 67.9792 208.714 68.2031V69.875H206.938V68.1563C205.255 67.9948 203.719 67.4323 202.328 66.4636L203.865 64.1979Z" fill="#5AA96B"/>
</g>
</g>
</g>
</g>
<g id="coin_5">
<path id="Vector_113" d="M271.885 34.7396C271.885 35.4792 271.812 36.2083 271.667 36.9375C271.526 37.6615 271.312 38.3646 271.026 39.0469C270.745 39.7344 270.396 40.3802 269.984 40.9948C269.578 41.6094 269.109 42.1823 268.583 42.7031C268.062 43.224 267.495 43.6927 266.88 44.1042C266.266 44.5156 265.615 44.8646 264.932 45.1458C264.25 45.4271 263.542 45.6406 262.818 45.7865C262.094 45.9323 261.359 46.0052 260.62 46.0052C259.88 46.0052 259.146 45.9323 258.422 45.7865C257.698 45.6406 256.995 45.4271 256.307 45.1458C255.625 44.8646 254.979 44.5156 254.365 44.1042C253.745 43.6927 253.177 43.224 252.656 42.7031C252.13 42.1823 251.667 41.6094 251.255 40.9948C250.844 40.3802 250.495 39.7344 250.214 39.0469C249.932 38.3646 249.719 37.6615 249.573 36.9375C249.427 36.2083 249.354 35.4792 249.354 34.7396C249.354 34 249.427 33.2656 249.573 32.5417C249.719 31.8125 249.932 31.1094 250.214 30.4271C250.495 29.7448 250.844 29.0938 251.255 28.4792C251.667 27.8646 252.13 27.2969 252.656 26.7708C253.177 26.25 253.745 25.7813 254.365 25.3698C254.979 24.9636 255.625 24.6146 256.307 24.3333C256.995 24.0469 257.698 23.8333 258.422 23.6875C259.146 23.5469 259.88 23.474 260.62 23.474C261.359 23.474 262.094 23.5469 262.818 23.6875C263.542 23.8333 264.25 24.0469 264.932 24.3333C265.615 24.6146 266.266 24.9636 266.88 25.3698C267.495 25.7813 268.062 26.25 268.583 26.7708C269.109 27.2969 269.578 27.8646 269.984 28.4792C270.396 29.0938 270.745 29.7448 271.026 30.4271C271.312 31.1094 271.526 31.8125 271.667 32.5417C271.812 33.2656 271.885 34 271.885 34.7396Z" fill="#FFE8B8"/>
<path id="Vector_114" d="M262.38 37.4948V37.4583C262.38 37 262.12 36.7396 261.234 36.4844V38.3646C262.021 38.2812 262.38 37.9896 262.38 37.4948Z" fill="#5AA96B"/>
<path id="Vector_115" d="M259.646 31.375C258.807 31.4479 258.484 31.7865 258.484 32.2344V32.2656C258.484 32.7083 258.724 32.9687 259.646 33.224V31.375Z" fill="#5AA96B"/>
<g id="Clip path group_11">
<mask id="mask20_0_1" style="mask-type:luminance" maskUnits="userSpaceOnUse" x="247" y="21" width="28" height="28">
<g id="3d51e9b494">
<path id="Vector_116" d="M247.818 21.8698H274.818V48.3333H247.818V21.8698Z" fill="white"/>
</g>
</mask>
<g mask="url(#mask20_0_1)">
<g id="Group_21">
<path id="Vector_117" d="M270.51 26.5312C270.188 26.1667 269.844 25.8177 269.484 25.4896C269.12 25.1615 268.74 24.8542 268.344 24.5677C267.948 24.2813 267.536 24.0156 267.109 23.776C266.682 23.5365 266.245 23.3229 265.797 23.1354C265.344 22.9427 264.885 22.7813 264.417 22.6458C263.948 22.5052 263.469 22.3958 262.99 22.3125C262.505 22.2292 262.021 22.1719 261.536 22.1406C261.047 22.1146 260.557 22.1146 260.068 22.1406C259.583 22.1667 259.094 22.2187 258.615 22.3021C258.13 22.3802 257.656 22.4896 257.188 22.625C256.714 22.7604 256.255 22.9219 255.802 23.1094C255.354 23.2969 254.911 23.5104 254.484 23.7448C254.057 23.9844 253.646 24.2448 253.245 24.5312C252.849 24.8125 252.469 25.1198 252.104 25.4479C251.74 25.7708 251.396 26.1198 251.073 26.4844C250.75 26.8542 250.448 27.2344 250.167 27.6354C249.87 28.0521 249.604 28.4844 249.359 28.9323C248.438 30.6458 247.932 32.474 247.839 34.4167C247.828 34.6354 247.818 34.8542 247.818 35.0781C247.818 35.599 247.849 36.1198 247.911 36.6354C247.974 37.1563 248.068 37.6667 248.193 38.1771C248.318 38.6823 248.474 39.1771 248.656 39.6667C248.844 40.1563 249.057 40.6302 249.297 41.0938C249.542 41.5573 249.813 42 250.104 42.4323C250.401 42.8594 250.724 43.2708 251.068 43.6615C251.417 44.0521 251.781 44.4219 252.172 44.7708C252.563 45.1146 252.974 45.4375 253.401 45.7344C253.833 46.0313 254.276 46.3021 254.74 46.5469C255.198 46.7865 255.677 47.0052 256.161 47.1875C256.651 47.375 257.146 47.5312 257.656 47.6562C258.161 47.7812 258.672 47.875 259.193 47.9427C259.708 48.0052 260.229 48.0365 260.75 48.0365C261.271 48.0417 261.792 48.0104 262.313 47.9479C262.828 47.8854 263.344 47.7917 263.849 47.6667C264.354 47.5469 264.854 47.3906 265.344 47.2083C265.833 47.026 266.307 46.8125 266.771 46.5677C267.234 46.3281 267.677 46.0625 268.109 45.7656C268.542 45.4688 268.953 45.151 269.344 44.8021C269.734 44.4583 270.104 44.0938 270.453 43.7031C270.797 43.3125 271.12 42.9062 271.417 42.474C271.719 42.0469 271.99 41.599 272.234 41.1406C272.474 40.6771 272.693 40.2031 272.88 39.7188C273.068 39.2292 273.224 38.7344 273.349 38.224C273.474 37.7187 273.573 37.2083 273.635 36.6875C273.703 36.1719 273.734 35.651 273.734 35.1302C273.74 34.6094 273.708 34.0885 273.646 33.5677C273.589 33.0521 273.495 32.5365 273.375 32.0312C273.25 31.526 273.099 31.026 272.911 30.5365C272.729 30.0469 272.521 29.5729 272.281 29.1094C272.036 28.6458 271.771 28.1979 271.474 27.7656C271.182 27.3385 270.865 26.9271 270.516 26.5312H270.51ZM256.448 36.8646C257.542 37.6354 258.568 38.0937 259.63 38.2656V36.2135C256.875 35.5781 255.474 34.6406 255.474 32.5208V32.4896C255.474 30.474 256.948 29.0729 259.563 28.8854V27.9115H261.339V28.9323C262.651 29.0729 263.854 29.5156 264.938 30.2656L263.536 32.5573C262.839 32.0781 262.078 31.7396 261.25 31.5417V33.5208C263.958 34.1563 265.333 35.1302 265.333 37.25V37.2812C265.333 39.3646 263.729 40.6458 261.302 40.8698V42.5417H259.526V40.8229C257.839 40.6615 256.302 40.099 254.911 39.1302L256.448 36.8646Z" fill="#5AA96B"/>
</g>
</g>
</g>
</g>
<g id="coin_6">
<path id="Vector_118" d="M390.203 15.0729C390.203 15.8125 390.13 16.5469 389.984 17.2708C389.839 18 389.625 18.7031 389.344 19.3854C389.063 20.0677 388.714 20.7187 388.302 21.3333C387.891 21.9479 387.427 22.5156 386.901 23.0417C386.38 23.5625 385.807 24.0312 385.193 24.4427C384.578 24.8542 383.932 25.1979 383.245 25.4792C382.562 25.7656 381.859 25.9792 381.135 26.125C380.406 26.2656 379.677 26.3385 378.938 26.3385C378.198 26.3385 377.464 26.2656 376.74 26.125C376.016 25.9792 375.307 25.7656 374.625 25.4792C373.943 25.1979 373.292 24.8542 372.677 24.4427C372.063 24.0312 371.495 23.5625 370.969 23.0417C370.448 22.5156 369.979 21.9479 369.568 21.3333C369.161 20.7187 368.812 20.0677 368.531 19.3854C368.245 18.7031 368.031 18 367.891 17.2708C367.745 16.5469 367.672 15.8125 367.672 15.0729C367.672 14.3333 367.745 13.6042 367.891 12.875C368.031 12.151 368.245 11.4479 368.531 10.7656C368.812 10.0781 369.161 9.43228 369.568 8.8177C369.979 8.20312 370.448 7.6302 370.969 7.10936C371.495 6.58853 372.063 6.11978 372.677 5.70832C373.292 5.29686 373.943 4.94791 374.625 4.66666C375.307 4.38541 376.016 4.17186 376.74 4.02603C377.464 3.8802 378.198 3.80728 378.938 3.80728C379.677 3.80728 380.406 3.8802 381.135 4.02603C381.859 4.17186 382.562 4.38541 383.245 4.66666C383.932 4.94791 384.578 5.29686 385.193 5.70832C385.807 6.11978 386.38 6.58853 386.901 7.10936C387.427 7.6302 387.891 8.20312 388.302 8.8177C388.714 9.43228 389.063 10.0781 389.344 10.7656C389.625 11.4479 389.839 12.151 389.984 12.875C390.13 13.6042 390.203 14.3333 390.203 15.0729Z" fill="#FFE8B8"/>
<path id="Vector_119" d="M380.693 17.8281V17.7969C380.693 17.3333 380.438 17.0781 379.552 16.8229V18.7031C380.333 18.6146 380.693 18.3229 380.693 17.8281Z" fill="#5AA96B"/>
<path id="Vector_120" d="M377.958 11.7135C377.125 11.7812 376.797 12.125 376.797 12.5677V12.6042C376.797 13.0469 377.042 13.3021 377.958 13.5625V11.7135Z" fill="#5AA96B"/>
<g id="Clip path group_12">
<mask id="mask21_0_1" style="mask-type:luminance" maskUnits="userSpaceOnUse" x="366" y="2" width="27" height="28">
<g id="794873d4d9">
<path id="Vector_121" d="M366.13 2.20834H392.333V29.2083H366.13V2.20834Z" fill="white"/>
</g>
</mask>
<g mask="url(#mask21_0_1)">
<g id="Group_22">
<path id="Vector_122" d="M388.828 6.86981C388.505 6.50001 388.161 6.15105 387.797 5.82293C387.437 5.49481 387.057 5.18751 386.661 4.90106C386.266 4.6146 385.854 4.35418 385.427 4.1146C385 3.87501 384.562 3.66147 384.109 3.46876C383.661 3.28126 383.203 3.11981 382.729 2.97918C382.26 2.84376 381.786 2.72918 381.307 2.64585C380.823 2.56251 380.339 2.50522 379.849 2.47918C379.359 2.44793 378.875 2.44793 378.385 2.47397C377.896 2.50001 377.411 2.55731 376.932 2.63543C376.448 2.71876 375.974 2.82814 375.5 2.96356C375.031 3.09897 374.573 3.26043 374.12 3.44793C373.667 3.63543 373.229 3.84897 372.802 4.08335C372.375 4.32293 371.958 4.58335 371.562 4.8646C371.167 5.15105 370.781 5.45314 370.422 5.78126C370.057 6.10939 369.714 6.45835 369.391 6.82293C369.062 7.18751 368.76 7.57293 368.479 7.97397C368.187 8.39064 367.922 8.82293 367.677 9.27085C366.755 10.9844 366.245 12.8125 366.151 14.7552C366.141 14.974 366.135 15.1927 366.135 15.4115C366.135 15.9375 366.167 16.4531 366.229 16.974C366.292 17.4896 366.385 18.0052 366.51 18.5104C366.635 19.0156 366.792 19.5156 366.974 20.0052C367.161 20.4896 367.375 20.9688 367.615 21.4271C367.859 21.8906 368.125 22.3386 368.422 22.7656C368.719 23.1979 369.042 23.6094 369.385 24C369.729 24.3906 370.099 24.7604 370.49 25.1042C370.88 25.4531 371.286 25.7761 371.719 26.0729C372.146 26.3698 372.594 26.6406 373.052 26.8802C373.516 27.125 373.99 27.3386 374.479 27.5261C374.969 27.7136 375.464 27.8646 375.969 27.9948C376.479 28.1198 376.99 28.2136 377.505 28.2761C378.026 28.3438 378.547 28.375 379.068 28.375C379.589 28.375 380.109 28.3438 380.63 28.2813C381.146 28.224 381.656 28.1302 382.167 28.0052C382.672 27.8802 383.172 27.7292 383.661 27.5417C384.146 27.3594 384.625 27.1458 385.089 26.9063C385.547 26.6667 385.995 26.3958 386.427 26.099C386.854 25.8073 387.266 25.4844 387.661 25.1406C388.052 24.7969 388.422 24.4271 388.766 24.0365C389.115 23.6511 389.437 23.2396 389.734 22.8125C390.031 22.3854 390.302 21.9375 390.547 21.474C390.792 21.0156 391.005 20.5417 391.193 20.0521C391.38 19.5677 391.536 19.0677 391.667 18.5625C391.792 18.0573 391.885 17.5469 391.953 17.0261C392.016 16.5104 392.052 15.9896 392.052 15.4688C392.052 14.9427 392.026 14.4219 391.964 13.9063C391.901 13.3854 391.812 12.875 391.687 12.3698C391.568 11.8594 391.411 11.3646 391.229 10.875C391.047 10.3854 390.833 9.90626 390.594 9.44272C390.354 8.98439 390.089 8.53647 389.792 8.10418C389.5 7.67189 389.177 7.26043 388.833 6.86981H388.828ZM374.766 17.2031C375.859 17.9688 376.885 18.4323 377.943 18.6042V16.5469C375.193 15.9167 373.792 14.9792 373.792 12.8594V12.8229C373.792 10.8073 375.26 9.40626 377.875 9.21876V8.24481H379.651V9.27085C380.969 9.40626 382.167 9.85418 383.255 10.6042L381.854 12.8906C381.156 12.4115 380.391 12.0729 379.568 11.875V13.8594C382.276 14.4896 383.651 15.4636 383.651 17.5833V17.6198C383.651 19.7031 382.042 20.9844 379.62 21.2083V22.8802H377.844V21.1615C376.156 21 374.62 20.4323 373.229 19.4688L374.766 17.2031Z" fill="#5AA96B"/>
</g>
</g>
</g>
</g>
<g id="coin_7">
<path id="Vector_123" d="M137.026 110.63C137.026 111.807 136.911 112.974 136.682 114.125C136.453 115.281 136.115 116.401 135.661 117.49C135.214 118.578 134.656 119.609 134.005 120.589C133.349 121.568 132.609 122.474 131.776 123.307C130.943 124.141 130.036 124.885 129.057 125.536C128.078 126.193 127.047 126.745 125.958 127.193C124.87 127.646 123.75 127.984 122.594 128.214C121.437 128.443 120.271 128.557 119.094 128.557C117.917 128.557 116.75 128.443 115.599 128.214C114.443 127.984 113.323 127.646 112.234 127.193C111.146 126.745 110.115 126.193 109.135 125.536C108.156 124.885 107.25 124.141 106.417 123.307C105.583 122.474 104.839 121.568 104.187 120.589C103.531 119.609 102.979 118.578 102.531 117.49C102.078 116.401 101.74 115.281 101.51 114.125C101.281 112.974 101.167 111.807 101.167 110.63C101.167 109.453 101.281 108.286 101.51 107.13C101.74 105.974 102.078 104.854 102.531 103.766C102.979 102.677 103.531 101.646 104.187 100.667C104.839 99.6875 105.583 98.7813 106.417 97.9479C107.25 97.1146 108.156 96.375 109.135 95.7188C110.115 95.0677 111.146 94.5104 112.234 94.0625C113.323 93.6094 114.443 93.2708 115.599 93.0417C116.75 92.8125 117.917 92.6979 119.094 92.6979C120.271 92.6979 121.437 92.8125 122.594 93.0417C123.75 93.2708 124.87 93.6094 125.958 94.0625C127.047 94.5104 128.078 95.0677 129.057 95.7188C130.036 96.375 130.943 97.1146 131.776 97.9479C132.609 98.7813 133.349 99.6875 134.005 100.667C134.656 101.646 135.214 102.677 135.661 103.766C136.115 104.854 136.453 105.974 136.682 107.13C136.911 108.286 137.026 109.453 137.026 110.63Z" fill="#FFE8B8"/>
<g id="Clip path group_13">
<mask id="mask22_0_1" style="mask-type:luminance" maskUnits="userSpaceOnUse" x="98" y="90" width="43" height="43">
<g id="0a0a008949">
<path id="Vector_124" d="M98.7135 90.1354H140.333V132.333H98.7135V90.1354Z" fill="white"/>
</g>
</mask>
<g mask="url(#mask22_0_1)">
<g id="Group_23">
<path id="Vector_125" d="M134.839 97.5677C134.323 96.9792 133.781 96.4271 133.203 95.9063C132.625 95.3802 132.026 94.8906 131.391 94.4375C130.76 93.9792 130.104 93.5625 129.427 93.1823C128.75 92.8021 128.052 92.4583 127.333 92.1563C126.615 91.8542 125.885 91.5938 125.135 91.375C124.391 91.1563 123.63 90.9792 122.865 90.849C122.099 90.7135 121.328 90.625 120.552 90.5781C119.771 90.5313 118.995 90.5313 118.219 90.5729C117.443 90.6146 116.667 90.7031 115.901 90.8281C115.135 90.9583 114.375 91.1302 113.63 91.349C112.88 91.5625 112.146 91.8229 111.427 92.1198C110.708 92.4167 110.01 92.7552 109.328 93.1354C108.651 93.5104 107.99 93.9271 107.359 94.3802C106.724 94.8281 106.12 95.3177 105.542 95.8386C104.964 96.3594 104.411 96.9115 103.896 97.4948C103.38 98.0729 102.901 98.6875 102.453 99.3229C101.984 99.9844 101.563 100.677 101.172 101.385C99.7031 104.115 98.8958 107.026 98.7448 110.12C98.7292 110.469 98.7188 110.818 98.7188 111.167C98.7188 112 98.7708 112.828 98.8698 113.651C98.9687 114.474 99.1198 115.292 99.3177 116.099C99.5156 116.906 99.7604 117.698 100.057 118.474C100.349 119.25 100.687 120.005 101.073 120.745C101.458 121.479 101.891 122.188 102.359 122.875C102.833 123.557 103.344 124.214 103.891 124.833C104.443 125.458 105.026 126.042 105.651 126.594C106.271 127.146 106.922 127.661 107.604 128.13C108.286 128.604 109 129.036 109.734 129.422C110.469 129.807 111.224 130.151 112 130.448C112.776 130.745 113.568 130.99 114.375 131.193C115.182 131.391 115.995 131.542 116.823 131.646C117.646 131.745 118.474 131.797 119.302 131.797C120.135 131.802 120.964 131.755 121.786 131.656C122.615 131.557 123.427 131.406 124.234 131.214C125.042 131.016 125.833 130.771 126.615 130.479C127.391 130.182 128.146 129.844 128.885 129.464C129.62 129.078 130.333 128.651 131.016 128.182C131.703 127.708 132.354 127.203 132.979 126.651C133.604 126.104 134.193 125.516 134.745 124.896C135.297 124.276 135.812 123.625 136.286 122.943C136.76 122.26 137.193 121.552 137.578 120.818C137.969 120.083 138.312 119.328 138.609 118.552C138.906 117.776 139.156 116.984 139.354 116.182C139.557 115.375 139.708 114.557 139.812 113.734C139.917 112.911 139.969 112.083 139.974 111.25C139.979 110.422 139.932 109.594 139.833 108.771C139.734 107.943 139.589 107.125 139.396 106.318C139.198 105.51 138.953 104.719 138.667 103.943C138.375 103.161 138.036 102.406 137.651 101.667C137.271 100.932 136.844 100.219 136.375 99.5313C135.906 98.849 135.401 98.1927 134.849 97.5677H134.839ZM112.458 114.016C114.198 115.24 115.828 115.974 117.516 116.245V112.974C113.135 111.969 110.906 110.474 110.906 107.099V107.047C110.906 103.839 113.245 101.609 117.406 101.307V99.7604H120.234V101.391C122.328 101.609 124.24 102.318 125.969 103.51L123.74 107.156C122.625 106.391 121.411 105.849 120.099 105.536V108.693C124.411 109.698 126.599 111.25 126.599 114.625V114.677C126.599 117.995 124.042 120.031 120.177 120.391V123.052H117.354V120.318C114.672 120.057 112.224 119.161 110.01 117.62L112.458 114.016Z" fill="#5AA96B"/>
</g>
</g>
</g>
<path id="Vector_126" d="M121.896 115.016V114.964C121.896 114.224 121.484 113.818 120.073 113.411V116.401C121.323 116.266 121.896 115.802 121.896 115.016Z" fill="#5AA96B"/>
<path id="Vector_127" d="M117.542 105.276C116.208 105.391 115.693 105.932 115.693 106.641V106.693C115.693 107.401 116.078 107.807 117.542 108.219V105.276Z" fill="#5AA96B"/>
</g>
</svg>
