<svg xmlns="http://www.w3.org/2000/svg" xmlns:xlink="http://www.w3.org/1999/xlink" width="500" zoomAndPan="magnify" viewBox="0 0 375 374.999991" height="500" preserveAspectRatio="xMidYMid meet" version="1.0"><defs><clipPath id="9aeac74655"><path d="M 17.253906 28 L 349 28 L 349 361 L 17.253906 361 Z M 17.253906 28 " clip-rule="nonzero"/></clipPath></defs><path fill="#ffe8b8" d="M 325.191406 189.964844 C 325.191406 192.324219 325.136719 194.679688 325.019531 197.039062 C 324.902344 199.394531 324.730469 201.746094 324.5 204.09375 C 324.265625 206.4375 323.980469 208.777344 323.632812 211.113281 C 323.285156 213.445312 322.882812 215.769531 322.421875 218.082031 C 321.964844 220.394531 321.445312 222.695312 320.875 224.984375 C 320.300781 227.273438 319.671875 229.542969 318.988281 231.800781 C 318.300781 234.058594 317.5625 236.296875 316.769531 238.519531 C 315.972656 240.738281 315.125 242.9375 314.222656 245.117188 C 313.320312 247.296875 312.363281 249.453125 311.355469 251.585938 C 310.347656 253.714844 309.289062 255.824219 308.175781 257.902344 C 307.0625 259.984375 305.902344 262.035156 304.6875 264.058594 C 303.476562 266.082031 302.214844 268.074219 300.902344 270.035156 C 299.59375 271.996094 298.234375 273.921875 296.832031 275.816406 C 295.425781 277.710938 293.976562 279.570312 292.480469 281.394531 C 290.984375 283.214844 289.441406 285.003906 287.859375 286.75 C 286.273438 288.496094 284.648438 290.207031 282.980469 291.871094 C 281.3125 293.539062 279.605469 295.167969 277.859375 296.75 C 276.109375 298.335938 274.324219 299.875 272.503906 301.371094 C 270.679688 302.867188 268.820312 304.316406 266.925781 305.722656 C 265.03125 307.128906 263.101562 308.484375 261.140625 309.796875 C 259.179688 311.105469 257.1875 312.367188 255.164062 313.582031 C 253.144531 314.792969 251.089844 315.953125 249.011719 317.066406 C 246.929688 318.179688 244.824219 319.238281 242.691406 320.246094 C 240.5625 321.253906 238.40625 322.210938 236.226562 323.113281 C 234.046875 324.015625 231.847656 324.863281 229.625 325.660156 C 227.40625 326.453125 225.167969 327.195312 222.910156 327.878906 C 220.652344 328.5625 218.378906 329.191406 216.09375 329.765625 C 213.804688 330.339844 211.503906 330.855469 209.191406 331.316406 C 206.875 331.773438 204.554688 332.179688 202.21875 332.523438 C 199.886719 332.871094 197.546875 333.160156 195.199219 333.390625 C 192.851562 333.621094 190.5 333.796875 188.144531 333.910156 C 185.789062 334.027344 183.433594 334.085938 181.074219 334.085938 C 178.714844 334.085938 176.359375 334.027344 174.003906 333.910156 C 171.648438 333.796875 169.296875 333.621094 166.949219 333.390625 C 164.601562 333.160156 162.261719 332.871094 159.925781 332.523438 C 157.59375 332.179688 155.269531 331.773438 152.957031 331.316406 C 150.644531 330.855469 148.34375 330.339844 146.054688 329.765625 C 143.769531 329.191406 141.496094 328.5625 139.238281 327.878906 C 136.980469 327.195312 134.742188 326.453125 132.523438 325.660156 C 130.300781 324.863281 128.101562 324.015625 125.921875 323.113281 C 123.742188 322.210938 121.585938 321.253906 119.457031 320.246094 C 117.324219 319.238281 115.21875 318.179688 113.136719 317.066406 C 111.058594 315.957031 109.003906 314.792969 106.980469 313.582031 C 104.960938 312.367188 102.96875 311.105469 101.007812 309.796875 C 99.046875 308.484375 97.117188 307.128906 95.222656 305.722656 C 93.328125 304.316406 91.46875 302.867188 89.644531 301.371094 C 87.824219 299.875 86.039062 298.335938 84.289062 296.75 C 82.542969 295.167969 80.835938 293.539062 79.167969 291.871094 C 77.5 290.207031 75.875 288.496094 74.289062 286.75 C 72.707031 285.003906 71.164062 283.214844 69.667969 281.394531 C 68.171875 279.570312 66.722656 277.710938 65.316406 275.816406 C 63.910156 273.921875 62.554688 271.996094 61.242188 270.035156 C 59.933594 268.074219 58.671875 266.082031 57.460938 264.058594 C 56.246094 262.035156 55.085938 259.984375 53.972656 257.902344 C 52.859375 255.824219 51.800781 253.714844 50.792969 251.585938 C 49.785156 249.453125 48.828125 247.296875 47.925781 245.117188 C 47.023438 242.9375 46.175781 240.738281 45.378906 238.519531 C 44.585938 236.296875 43.847656 234.058594 43.160156 231.800781 C 42.476562 229.542969 41.847656 227.273438 41.273438 224.984375 C 40.703125 222.695312 40.183594 220.394531 39.726562 218.082031 C 39.265625 215.769531 38.863281 213.445312 38.515625 211.113281 C 38.167969 208.777344 37.878906 206.4375 37.648438 204.09375 C 37.417969 201.746094 37.246094 199.394531 37.128906 197.039062 C 37.011719 194.679688 36.957031 192.324219 36.957031 189.964844 C 36.957031 187.605469 37.011719 185.25 37.128906 182.894531 C 37.246094 180.539062 37.417969 178.1875 37.648438 175.839844 C 37.878906 173.492188 38.167969 171.152344 38.515625 168.820312 C 38.863281 166.484375 39.265625 164.164062 39.726562 161.851562 C 40.183594 159.535156 40.703125 157.234375 41.273438 154.949219 C 41.847656 152.660156 42.476562 150.386719 43.160156 148.128906 C 43.847656 145.875 44.585938 143.632812 45.378906 141.414062 C 46.175781 139.191406 47.023438 136.992188 47.925781 134.8125 C 48.828125 132.636719 49.785156 130.480469 50.792969 128.347656 C 51.800781 126.214844 52.859375 124.109375 53.972656 122.027344 C 55.085938 119.949219 56.246094 117.898438 57.460938 115.875 C 58.671875 113.851562 59.933594 111.859375 61.242188 109.898438 C 62.554688 107.9375 63.910156 106.007812 65.316406 104.113281 C 66.722656 102.21875 68.171875 100.359375 69.667969 98.539062 C 71.164062 96.714844 72.707031 94.929688 74.289062 93.183594 C 75.875 91.433594 77.5 89.726562 79.167969 88.058594 C 80.835938 86.390625 82.542969 84.765625 84.289062 83.179688 C 86.039062 81.597656 87.824219 80.058594 89.644531 78.5625 C 91.46875 77.0625 93.328125 75.613281 95.222656 74.207031 C 97.117188 72.804688 99.046875 71.445312 101.007812 70.136719 C 102.96875 68.824219 104.960938 67.5625 106.980469 66.351562 C 109.003906 65.136719 111.058594 63.976562 113.136719 62.863281 C 115.21875 61.753906 117.324219 60.691406 119.457031 59.683594 C 121.585938 58.675781 123.742188 57.71875 125.921875 56.816406 C 128.101562 55.914062 130.300781 55.066406 132.523438 54.273438 C 134.742188 53.476562 136.980469 52.738281 139.238281 52.054688 C 141.496094 51.367188 143.769531 50.738281 146.054688 50.167969 C 148.34375 49.59375 150.644531 49.078125 152.957031 48.617188 C 155.269531 48.15625 157.59375 47.753906 159.925781 47.40625 C 162.261719 47.0625 164.601562 46.773438 166.949219 46.542969 C 169.296875 46.308594 171.648438 46.136719 174.003906 46.019531 C 176.359375 45.90625 178.714844 45.847656 181.074219 45.847656 C 183.433594 45.847656 185.789062 45.90625 188.144531 46.019531 C 190.5 46.136719 192.851562 46.308594 195.199219 46.542969 C 197.546875 46.773438 199.886719 47.0625 202.222656 47.40625 C 204.554688 47.753906 206.875 48.15625 209.191406 48.617188 C 211.503906 49.078125 213.804688 49.59375 216.09375 50.167969 C 218.378906 50.738281 220.652344 51.367188 222.910156 52.054688 C 225.167969 52.738281 227.40625 53.476562 229.625 54.273438 C 231.847656 55.066406 234.046875 55.914062 236.226562 56.816406 C 238.40625 57.71875 240.5625 58.675781 242.691406 59.683594 C 244.824219 60.691406 246.929688 61.753906 249.011719 62.863281 C 251.089844 63.976562 253.144531 65.136719 255.164062 66.351562 C 257.1875 67.5625 259.179688 68.824219 261.140625 70.136719 C 263.101562 71.445312 265.03125 72.804688 266.925781 74.207031 C 268.820312 75.613281 270.679688 77.0625 272.503906 78.5625 C 274.324219 80.058594 276.109375 81.597656 277.859375 83.179688 C 279.605469 84.765625 281.3125 86.390625 282.980469 88.058594 C 284.648438 89.726562 286.273438 91.433594 287.859375 93.183594 C 289.441406 94.929688 290.984375 96.714844 292.480469 98.539062 C 293.976562 100.359375 295.425781 102.21875 296.832031 104.113281 C 298.234375 106.007812 299.59375 107.9375 300.902344 109.898438 C 302.214844 111.859375 303.476562 113.851562 304.6875 115.875 C 305.902344 117.898438 307.0625 119.949219 308.175781 122.027344 C 309.289062 124.109375 310.347656 126.214844 311.355469 128.347656 C 312.363281 130.480469 313.320312 132.636719 314.222656 134.8125 C 315.125 136.992188 315.972656 139.191406 316.769531 141.414062 C 317.5625 143.632812 318.300781 145.875 318.988281 148.128906 C 319.671875 150.386719 320.300781 152.660156 320.875 154.949219 C 321.445312 157.234375 321.964844 159.535156 322.421875 161.851562 C 322.882812 164.164062 323.285156 166.484375 323.632812 168.820312 C 323.980469 171.152344 324.265625 173.492188 324.5 175.839844 C 324.730469 178.1875 324.902344 180.539062 325.019531 182.894531 C 325.136719 185.25 325.191406 187.605469 325.191406 189.964844 Z M 325.191406 189.964844 " fill-opacity="1" fill-rule="nonzero"/><g clip-path="url(#9aeac74655)"><path fill="#5aa96b" d="M 307.59375 84.988281 C 305.535156 82.636719 303.410156 80.347656 301.21875 78.117188 C 299.027344 75.886719 296.777344 73.722656 294.464844 71.621094 C 292.152344 69.519531 289.78125 67.484375 287.351562 65.515625 C 284.925781 63.546875 282.441406 61.648438 279.90625 59.820312 C 277.371094 57.992188 274.789062 56.238281 272.152344 54.558594 C 269.519531 52.875 266.835938 51.269531 264.113281 49.738281 C 261.386719 48.210938 258.621094 46.757812 255.8125 45.386719 C 253.003906 44.011719 250.160156 42.71875 247.28125 41.507812 C 244.398438 40.292969 241.488281 39.164062 238.542969 38.117188 C 235.597656 37.070312 232.625 36.105469 229.625 35.226562 C 226.628906 34.347656 223.605469 33.554688 220.5625 32.84375 C 217.515625 32.136719 214.457031 31.515625 211.375 30.980469 C 208.296875 30.445312 205.203125 29.996094 202.101562 29.636719 C 198.996094 29.277344 195.882812 29.003906 192.761719 28.820312 C 189.644531 28.636719 186.519531 28.539062 183.394531 28.53125 C 180.269531 28.523438 177.144531 28.605469 174.027344 28.773438 C 170.90625 28.941406 167.792969 29.199219 164.683594 29.546875 C 161.578125 29.890625 158.484375 30.324219 155.402344 30.84375 C 152.320312 31.363281 149.257812 31.972656 146.207031 32.664062 C 143.160156 33.359375 140.136719 34.140625 137.132812 35.003906 C 134.128906 35.867188 131.152344 36.816406 128.203125 37.851562 C 125.253906 38.882812 122.335938 40 119.449219 41.199219 C 116.5625 42.398438 113.710938 43.675781 110.898438 45.035156 C 108.082031 46.394531 105.308594 47.835938 102.578125 49.351562 C 99.84375 50.867188 97.15625 52.460938 94.511719 54.128906 C 91.871094 55.796875 89.277344 57.539062 86.734375 59.355469 C 84.1875 61.171875 81.699219 63.054688 79.261719 65.011719 C 76.824219 66.96875 74.441406 68.992188 72.121094 71.082031 C 69.796875 73.175781 67.535156 75.328125 65.332031 77.550781 C 63.132812 79.769531 60.996094 82.046875 58.925781 84.386719 C 56.851562 86.726562 54.847656 89.125 52.910156 91.578125 C 50.976562 94.03125 49.109375 96.535156 47.316406 99.09375 C 43.5625 104.429688 40.132812 109.964844 37.019531 115.695312 C 31.195312 126.519531 26.636719 137.851562 23.34375 149.691406 C 20.054688 161.535156 18.109375 173.59375 17.515625 185.871094 C 17.386719 188.664062 17.300781 191.484375 17.300781 194.300781 C 17.296875 197.636719 17.398438 200.96875 17.597656 204.296875 C 17.800781 207.628906 18.097656 210.949219 18.5 214.261719 C 18.902344 217.574219 19.402344 220.871094 20 224.152344 C 20.601562 227.433594 21.300781 230.691406 22.097656 233.933594 C 22.894531 237.171875 23.785156 240.382812 24.777344 243.570312 C 25.769531 246.753906 26.851562 249.90625 28.035156 253.027344 C 29.214844 256.148438 30.488281 259.230469 31.855469 262.273438 C 33.222656 265.316406 34.679688 268.3125 36.226562 271.269531 C 37.777344 274.222656 39.410156 277.128906 41.136719 279.984375 C 42.859375 282.84375 44.667969 285.644531 46.558594 288.390625 C 48.449219 291.136719 50.425781 293.824219 52.480469 296.453125 C 54.535156 299.082031 56.667969 301.644531 58.875 304.144531 C 61.085938 306.644531 63.367188 309.074219 65.722656 311.4375 C 68.078125 313.796875 70.503906 316.085938 73 318.300781 C 75.492188 320.515625 78.050781 322.652344 80.675781 324.714844 C 83.300781 326.777344 85.980469 328.753906 88.726562 330.652344 C 91.46875 332.550781 94.265625 334.367188 97.117188 336.097656 C 99.96875 337.828125 102.871094 339.46875 105.824219 341.023438 C 108.773438 342.578125 111.769531 344.042969 114.808594 345.417969 C 117.851562 346.789062 120.929688 348.070312 124.046875 349.257812 C 127.164062 350.449219 130.3125 351.539062 133.496094 352.539062 C 136.679688 353.535156 139.890625 354.4375 143.128906 355.242188 C 146.363281 356.046875 149.625 356.75 152.902344 357.359375 C 156.183594 357.964844 159.480469 358.472656 162.789062 358.882812 C 166.101562 359.289062 169.421875 359.597656 172.75 359.808594 C 176.078125 360.015625 179.414062 360.121094 182.75 360.128906 C 186.085938 360.136719 189.417969 360.042969 192.746094 359.847656 C 196.078125 359.652344 199.398438 359.359375 202.710938 358.964844 C 206.023438 358.570312 209.320312 358.074219 212.605469 357.480469 C 215.886719 356.886719 219.148438 356.195312 222.390625 355.402344 C 225.628906 354.613281 228.84375 353.726562 232.03125 352.742188 C 235.21875 351.757812 238.375 350.675781 241.496094 349.5 C 244.617188 348.324219 247.699219 347.058594 250.746094 345.695312 C 253.792969 344.335938 256.792969 342.882812 259.75 341.339844 C 262.710938 339.796875 265.617188 338.167969 268.476562 336.449219 C 271.335938 334.730469 274.140625 332.929688 276.890625 331.042969 C 279.644531 329.152344 282.335938 327.183594 284.964844 325.136719 C 287.597656 323.085938 290.164062 320.957031 292.667969 318.753906 C 295.171875 316.546875 297.605469 314.269531 299.972656 311.917969 C 302.339844 309.566406 304.632812 307.144531 306.851562 304.65625 C 309.070312 302.164062 311.214844 299.609375 313.277344 296.992188 C 315.34375 294.371094 317.328125 291.691406 319.230469 288.953125 C 321.136719 286.210938 322.957031 283.417969 324.691406 280.570312 C 326.425781 277.71875 328.074219 274.820312 329.632812 271.871094 C 331.191406 268.925781 332.664062 265.929688 334.042969 262.894531 C 335.421875 259.855469 336.707031 256.78125 337.902344 253.664062 C 339.097656 250.550781 340.195312 247.402344 341.199219 244.21875 C 342.203125 241.039062 343.109375 237.832031 343.917969 234.59375 C 344.730469 231.359375 345.441406 228.101562 346.054688 224.820312 C 346.667969 221.542969 347.179688 218.25 347.59375 214.9375 C 348.011719 211.628906 348.324219 208.308594 348.539062 204.980469 C 348.753906 201.652344 348.867188 198.316406 348.878906 194.980469 C 348.890625 191.648438 348.804688 188.3125 348.617188 184.984375 C 348.425781 181.652344 348.140625 178.332031 347.75 175.015625 C 347.363281 171.703125 346.875 168.40625 346.285156 165.121094 C 345.699219 161.839844 345.011719 158.574219 344.226562 155.332031 C 343.441406 152.089844 342.558594 148.875 341.582031 145.6875 C 340.601562 142.496094 339.527344 139.339844 338.359375 136.214844 C 337.1875 133.09375 335.925781 130.007812 334.570312 126.957031 C 333.214844 123.910156 331.769531 120.90625 330.230469 117.945312 C 328.695312 114.984375 327.070312 112.074219 325.355469 109.210938 C 323.644531 106.347656 321.84375 103.539062 319.960938 100.785156 C 318.082031 98.03125 316.117188 95.335938 314.070312 92.699219 C 312.027344 90.066406 309.902344 87.496094 307.703125 84.988281 Z M 127.71875 217.1875 C 141.71875 227.023438 154.828125 232.917969 168.375 235.109375 L 168.375 208.820312 C 133.179688 200.738281 115.257812 188.730469 115.257812 161.617188 L 115.257812 161.183594 C 115.257812 135.394531 134.066406 117.472656 167.507812 115.066406 L 167.507812 102.605469 L 190.242188 102.605469 L 190.242188 115.71875 C 198.515625 116.585938 206.558594 118.460938 214.359375 121.347656 C 222.164062 124.238281 229.492188 128.042969 236.335938 132.773438 L 218.414062 162.050781 C 209.460938 155.90625 199.699219 151.570312 189.136719 149.050781 L 189.136719 174.40625 C 223.8125 182.488281 241.367188 194.949219 241.367188 222.082031 L 241.367188 222.515625 C 241.367188 249.171875 220.820312 265.558594 189.785156 268.417969 L 189.785156 289.832031 L 167.074219 289.832031 L 167.074219 267.832031 C 161.792969 267.328125 156.570312 266.484375 151.398438 265.308594 C 146.226562 264.128906 141.148438 262.628906 136.171875 260.800781 C 131.191406 258.972656 126.351562 256.832031 121.648438 254.382812 C 116.941406 251.933594 112.414062 249.191406 108.0625 246.160156 Z M 127.71875 217.1875 " fill-opacity="1" fill-rule="nonzero"/></g><path fill="#5aa96b" d="M 203.570312 225.226562 L 203.570312 224.792969 C 203.570312 218.875 200.277344 215.605469 188.917969 212.332031 L 188.917969 236.367188 C 198.976562 235.28125 203.570312 231.554688 203.570312 225.226562 Z M 203.570312 225.226562 " fill-opacity="1" fill-rule="nonzero"/><path fill="#5aa96b" d="M 168.589844 146.96875 C 157.886719 147.855469 153.722656 152.234375 153.722656 157.914062 L 153.722656 158.347656 C 153.722656 164.023438 156.800781 167.296875 168.589844 170.589844 Z M 168.589844 146.96875 " fill-opacity="1" fill-rule="nonzero"/></svg>