<svg xmlns="http://www.w3.org/2000/svg" xmlns:xlink="http://www.w3.org/1999/xlink" width="500" zoomAndPan="magnify" viewBox="0 0 375 374.999991" height="500" preserveAspectRatio="xMidYMid meet" version="1.0"><defs><g/><clipPath id="52e995e14a"><path d="M 46 69 L 299 69 L 299 154 L 46 154 Z M 46 69 " clip-rule="nonzero"/></clipPath><clipPath id="aa675b3e9c"><path d="M 38.539062 96.597656 L 294.929688 51.941406 L 312.046875 150.210938 L 55.65625 194.867188 Z M 38.539062 96.597656 " clip-rule="nonzero"/></clipPath><clipPath id="c056dcc807"><path d="M 38.539062 96.597656 L 294.929688 51.941406 L 312.046875 150.210938 L 55.65625 194.867188 Z M 38.539062 96.597656 " clip-rule="nonzero"/></clipPath><clipPath id="6aad8608bc"><path d="M 258 77 L 288 77 L 288 143 L 258 143 Z M 258 77 " clip-rule="nonzero"/></clipPath><clipPath id="75f57604ea"><path d="M 38.539062 96.597656 L 294.929688 51.941406 L 312.046875 150.210938 L 55.65625 194.867188 Z M 38.539062 96.597656 " clip-rule="nonzero"/></clipPath><clipPath id="934c74f8f0"><path d="M 38.539062 96.597656 L 294.929688 51.941406 L 312.046875 150.210938 L 55.65625 194.867188 Z M 38.539062 96.597656 " clip-rule="nonzero"/></clipPath><clipPath id="5d827d03ef"><path d="M 55 71 L 294 71 L 294 152 L 55 152 Z M 55 71 " clip-rule="nonzero"/></clipPath><clipPath id="dccdb65e76"><path d="M 38.539062 96.597656 L 294.929688 51.941406 L 312.046875 150.210938 L 55.65625 194.867188 Z M 38.539062 96.597656 " clip-rule="nonzero"/></clipPath><clipPath id="18da262525"><path d="M 38.539062 96.597656 L 294.929688 51.941406 L 312.046875 150.210938 L 55.65625 194.867188 Z M 38.539062 96.597656 " clip-rule="nonzero"/></clipPath></defs><g clip-path="url(#52e995e14a)"><g clip-path="url(#aa675b3e9c)"><g clip-path="url(#c056dcc807)"><path fill="#5aa96b" d="M 280.695312 70.441406 C 285.511719 72.574219 300.816406 84.9375 298.8125 118.910156 C 296.8125 152.882812 272.667969 153.105469 268.875 153.019531 C 252.769531 153.171875 199.847656 152.984375 197.839844 153.644531 C 195.832031 154.300781 193.101562 150.753906 193.101562 150.753906 C 193.101562 150.753906 131.167969 148.109375 128.621094 148.511719 C 126.074219 148.914062 123.386719 146.027344 123.386719 146.027344 L 80.289062 144.582031 C 80.289062 144.582031 76.539062 151.613281 71.6875 152.765625 C 66.835938 153.917969 58.84375 153.621094 54.597656 152.347656 C 50.351562 151.078125 45.65625 137.382812 46.730469 121.109375 C 47.808594 104.835938 56.042969 96.074219 57.402344 94.644531 C 58.761719 93.214844 67.878906 92.515625 74.117188 93.503906 C 76.792969 93.929688 80.070312 101.453125 80.070312 101.453125 L 121.175781 97.59375 C 121.175781 97.59375 124.359375 90.726562 128.011719 90.101562 C 131.660156 89.476562 192.125 83.488281 192.125 83.488281 C 192.125 83.488281 195.246094 79.121094 198.507812 78.394531 C 201.761719 77.660156 273.449219 67.234375 280.695312 70.441406 Z M 280.695312 70.441406 " fill-opacity="1" fill-rule="nonzero"/></g></g></g><g clip-path="url(#6aad8608bc)"><g clip-path="url(#75f57604ea)"><g clip-path="url(#934c74f8f0)"><path fill="#fff6e1" d="M 270.496094 77.167969 C 255.695312 80.695312 256.296875 109.238281 261.191406 126.335938 C 266.085938 143.4375 275.804688 142.921875 278.863281 141.910156 C 281.230469 140.953125 288.582031 133.25 287.507812 111.953125 C 286.4375 90.644531 273.882812 77.570312 270.496094 77.167969 Z M 282.011719 122.714844 C 281.734375 124.542969 264.679688 110.132812 265.082031 107.773438 C 265.480469 105.421875 282.457031 119.785156 282.011719 122.714844 Z M 284.644531 112.746094 C 283.707031 115 261.476562 93.367188 262.199219 90.960938 C 262.925781 88.546875 285.582031 110.488281 284.644531 112.746094 Z M 284.644531 112.746094 " fill-opacity="1" fill-rule="nonzero"/></g></g></g><g clip-path="url(#5d827d03ef)"><g clip-path="url(#dccdb65e76)"><g clip-path="url(#18da262525)"><path fill="#ff3131" d="M 261.277344 73.328125 C 260.886719 73.828125 252.738281 81.609375 250.300781 102.546875 C 247.863281 123.484375 252.132812 141.8125 266.203125 149.183594 C 268.308594 151.378906 265.105469 151.101562 260.648438 147.375 C 256.1875 143.644531 248.105469 136.988281 247.714844 111.496094 C 247.328125 86.007812 257.972656 74.46875 259.425781 72.585938 C 260.882812 70.703125 263.375 70.625 261.277344 73.328125 Z M 290.578125 96.933594 C 285.808594 77.257812 275.3125 77.546875 274.820312 77.019531 C 273.679688 76.695312 271.476562 77.644531 277.066406 79.746094 C 281.363281 81.363281 287.753906 87.15625 290.539062 106.273438 C 293.324219 125.386719 288.699219 131.46875 287.457031 134.554688 C 286.214844 137.636719 285.535156 141.378906 287.839844 137.714844 C 292.667969 128.730469 295.34375 116.605469 290.578125 96.933594 Z M 181.058594 118.8125 C 181.476562 125.789062 184.410156 132.339844 183.714844 126.4375 C 179.9375 113.910156 186.292969 92.222656 192.125 83.480469 L 190.542969 83.640625 C 182.078125 94.289062 180.640625 111.839844 181.058594 118.8125 Z M 190.777344 150.652344 L 193.105469 150.75 C 191.46875 149.578125 188.03125 142.066406 186.820312 141.214844 C 185.605469 140.359375 188.046875 146.898438 190.777344 150.652344 Z M 117.699219 113.355469 C 118.328125 112.582031 118.148438 102.769531 121.175781 97.585938 L 119.710938 97.390625 C 115.515625 106.980469 117.066406 114.132812 117.699219 113.355469 Z M 118.628906 129.023438 C 117.109375 125.828125 115.652344 137.617188 121.179688 145.917969 L 123.386719 146.027344 C 123.210938 145.835938 123.035156 145.625 122.867188 145.402344 C 120.578125 142.351562 119.054688 136.132812 118.628906 129.023438 Z M 74.394531 102.4375 C 67.578125 101.917969 60.710938 110.511719 64.261719 126.664062 C 67.816406 142.816406 77.28125 144.550781 77.835938 144.726562 C 79.167969 145.144531 79.246094 144.160156 77.671875 143.007812 C 74.6875 140.8125 70.835938 140.402344 66.464844 129.0625 C 62.09375 117.71875 66.5625 107.5 70.070312 105.101562 C 73.582031 102.699219 75.621094 102.902344 74.394531 102.4375 Z M 57.421875 120.394531 C 59.183594 99.664062 66.453125 96.066406 66.601562 95.347656 C 67.570312 94.21875 66.605469 92.074219 61.980469 98.894531 C 55.886719 107.714844 54.703125 118.789062 56.726562 133.710938 C 59.167969 148.042969 65.125 152.863281 66.371094 151.417969 C 67.613281 149.980469 55.65625 141.125 57.421875 120.394531 Z M 57.421875 120.394531 " fill-opacity="1" fill-rule="nonzero"/></g></g></g><g fill="#000000" fill-opacity="1"><g transform="translate(31.046084, 179.214862)"><g><path d="M 2.492188 -14.851562 L 2.492188 -4.683594 C 2.492188 -2.460938 0.414062 -2.222656 0.59375 -1.039062 C 0.769531 0 5.128906 0.0898438 5.988281 0.0898438 C 6.847656 0.0898438 11.207031 0.0585938 11.324219 -1.039062 C 11.414062 -2.253906 9.457031 -2.371094 9.457031 -4.683594 L 9.457031 -8.242188 L 9.605469 -8.242188 C 12.71875 -8.242188 12.007812 -5.21875 13.550781 -5.21875 C 14.707031 -5.21875 14.527344 -6.613281 14.527344 -7.53125 L 14.527344 -10.878906 C 14.527344 -11.800781 14.707031 -13.191406 13.550781 -13.191406 C 12.007812 -13.191406 12.71875 -10.140625 9.605469 -10.140625 L 9.457031 -10.140625 L 9.457031 -14.851562 C 9.457031 -16.898438 10.019531 -17.609375 11.027344 -17.730469 L 13.816406 -17.730469 C 16.929688 -17.730469 16.542969 -12.304688 18.085938 -12.332031 C 19.359375 -12.332031 19.269531 -14.765625 19.269531 -15.683594 C 19.269531 -16.632812 19.300781 -18.648438 18.234375 -19.09375 C 16.988281 -19.625 8.300781 -19.625 8.210938 -19.625 C 7.351562 -19.625 0.769531 -19.539062 0.59375 -18.5 C 0.414062 -17.3125 2.492188 -17.078125 2.492188 -14.851562 Z M 2.492188 -14.851562 "/></g></g></g><g fill="#000000" fill-opacity="1"><g transform="translate(50.754559, 179.214862)"><g><path d="M 8.894531 -4.625 C 8.894531 -8.035156 8.863281 -9.011719 8.894531 -10.4375 C 8.925781 -12.183594 9.070312 -13.964844 7.769531 -13.964844 C 7.589844 -13.964844 7.410156 -13.933594 7.175781 -13.875 C 4.832031 -13.191406 3.855469 -12.957031 1.394531 -12.15625 C 0.207031 -11.800781 0.414062 -10.671875 1.480469 -10.464844 C 2.132812 -10.316406 2.460938 -9.605469 2.460938 -7.648438 L 2.460938 -4.625 C 2.460938 -2.402344 0.445312 -2.164062 0.621094 -1.007812 C 0.800781 0.03125 4.832031 0.117188 5.664062 0.117188 C 6.492188 0.117188 10.554688 0.0898438 10.644531 -1.007812 C 10.761719 -2.222656 8.894531 -2.34375 8.894531 -4.625 Z M 5.277344 -14.824219 C 7.472656 -14.824219 9.25 -16.246094 9.25 -18.027344 C 9.25 -19.773438 7.472656 -21.199219 5.277344 -21.199219 C 3.054688 -21.199219 1.273438 -19.773438 1.273438 -18.027344 C 1.273438 -16.246094 3.054688 -14.824219 5.277344 -14.824219 Z M 5.277344 -14.824219 "/></g></g></g><g fill="#000000" fill-opacity="1"><g transform="translate(61.9869, 179.214862)"><g><path d="M 19.417969 -4.625 C 19.449219 -8.035156 19.449219 -8.507812 19.449219 -9.933594 C 19.449219 -12.6875 17.285156 -14.617188 14.140625 -14.617188 C 11.917969 -14.617188 10.019531 -13.816406 8.953125 -11.742188 C 8.628906 -13.253906 8.417969 -14.972656 7.472656 -14.972656 C 7.203125 -14.972656 6.878906 -14.851562 6.492188 -14.558594 C 4.832031 -13.371094 3.882812 -12.957031 1.421875 -12.15625 C 0.207031 -11.769531 0.414062 -10.671875 1.511719 -10.4375 C 2.195312 -10.316406 2.519531 -9.605469 2.519531 -7.648438 L 2.519531 -4.625 C 2.519531 -2.402344 0.445312 -2.164062 0.621094 -1.007812 C 0.800781 0.03125 5.011719 0.117188 5.871094 0.117188 C 6.730469 0.117188 10.851562 0.0898438 10.941406 -1.007812 C 11.058594 -2.222656 9.101562 -2.34375 9.101562 -4.625 C 9.101562 -6.078125 9.101562 -7.203125 9.101562 -8.125 C 9.160156 -9.871094 9.785156 -11.976562 11.414062 -11.976562 C 12.835938 -11.976562 12.71875 -9.605469 12.71875 -7.648438 L 12.71875 -4.625 C 12.71875 -2.402344 13.042969 0.117188 16.070312 0.117188 C 16.957031 0.117188 21.199219 0.0898438 21.285156 -1.007812 C 21.375 -2.222656 19.417969 -2.34375 19.417969 -4.625 Z M 19.417969 -4.625 "/></g></g></g><g fill="#000000" fill-opacity="1"><g transform="translate(83.858859, 179.214862)"><g><path d="M 17.640625 -4.625 C 17.433594 -6.820312 17.460938 -6.820312 17.34375 -8.242188 C 16.929688 -13.550781 13.402344 -14.914062 9.605469 -14.914062 C 7.621094 -14.914062 4.359375 -14.644531 2.996094 -13.015625 C 1.898438 -11.679688 2.847656 -9.933594 4.328125 -9.933594 C 4.386719 -9.933594 4.417969 -9.933594 4.445312 -9.933594 C 7.085938 -10.082031 6.613281 -13.164062 8.714844 -13.191406 C 9.398438 -13.191406 9.871094 -12.957031 10.257812 -12.394531 C 10.820312 -11.296875 10.289062 -9.992188 7.886719 -9.398438 C 4.121094 -8.480469 0.621094 -7.738281 0.445312 -4.300781 C 0.296875 -1.453125 2.996094 0.265625 6.253906 0.265625 C 6.492188 0.265625 6.757812 0.265625 7.027344 0.238281 C 9.722656 0.03125 10.910156 -2.253906 9.308594 -2.3125 C 7.796875 -2.371094 7.234375 -3.585938 7.117188 -4.238281 C 6.90625 -5.335938 7.144531 -6.492188 8.417969 -7.351562 C 9.488281 -8.09375 10.4375 -8.300781 10.878906 -9.25 L 10.941406 -4.625 C 10.941406 -2.402344 11.238281 0.117188 14.289062 0.117188 C 15.148438 0.117188 19.390625 0.0898438 19.476562 -1.007812 C 19.566406 -2.222656 17.640625 -2.34375 17.640625 -4.625 Z M 17.640625 -4.625 "/></g></g></g><g fill="#000000" fill-opacity="1"><g transform="translate(103.774793, 179.214862)"><g><path d="M 19.417969 -4.625 C 19.449219 -8.035156 19.449219 -8.507812 19.449219 -9.933594 C 19.449219 -12.6875 17.285156 -14.617188 14.140625 -14.617188 C 11.917969 -14.617188 10.019531 -13.816406 8.953125 -11.742188 C 8.628906 -13.253906 8.417969 -14.972656 7.472656 -14.972656 C 7.203125 -14.972656 6.878906 -14.851562 6.492188 -14.558594 C 4.832031 -13.371094 3.882812 -12.957031 1.421875 -12.15625 C 0.207031 -11.769531 0.414062 -10.671875 1.511719 -10.4375 C 2.195312 -10.316406 2.519531 -9.605469 2.519531 -7.648438 L 2.519531 -4.625 C 2.519531 -2.402344 0.445312 -2.164062 0.621094 -1.007812 C 0.800781 0.03125 5.011719 0.117188 5.871094 0.117188 C 6.730469 0.117188 10.851562 0.0898438 10.941406 -1.007812 C 11.058594 -2.222656 9.101562 -2.34375 9.101562 -4.625 C 9.101562 -6.078125 9.101562 -7.203125 9.101562 -8.125 C 9.160156 -9.871094 9.785156 -11.976562 11.414062 -11.976562 C 12.835938 -11.976562 12.71875 -9.605469 12.71875 -7.648438 L 12.71875 -4.625 C 12.71875 -2.402344 13.042969 0.117188 16.070312 0.117188 C 16.957031 0.117188 21.199219 0.0898438 21.285156 -1.007812 C 21.375 -2.222656 19.417969 -2.34375 19.417969 -4.625 Z M 19.417969 -4.625 "/></g></g></g><g fill="#000000" fill-opacity="1"><g transform="translate(125.646751, 179.214862)"><g><path d="M 15.742188 -6.019531 C 14.914062 -4.742188 13.695312 -3.914062 12.273438 -3.824219 C 9.042969 -3.824219 7.144531 -6.789062 6.96875 -9.753906 C 6.878906 -11.175781 7.261719 -13.519531 8.894531 -13.785156 C 9.011719 -13.816406 9.132812 -13.816406 9.21875 -13.816406 C 10.703125 -13.816406 10.082031 -12.007812 10.226562 -10.4375 C 10.40625 -8.628906 11.472656 -7.707031 13.28125 -7.707031 C 15.355469 -7.707031 16.632812 -8.953125 16.425781 -10.671875 C 16.277344 -11.859375 14.617188 -14.707031 9.339844 -14.707031 C 4.832031 -14.707031 0.445312 -12.183594 0.445312 -7.203125 C 0.445312 -2.757812 4.328125 0.265625 8.925781 0.265625 C 12.835938 0.265625 16.246094 -1.957031 17.164062 -5.367188 C 17.3125 -5.960938 16.839844 -6.375 16.367188 -6.375 C 16.128906 -6.375 15.890625 -6.253906 15.742188 -6.019531 Z M 15.742188 -6.019531 "/></g></g></g><g fill="#000000" fill-opacity="1"><g transform="translate(143.280642, 179.214862)"><g><path d="M 8.65625 -13.726562 C 10.109375 -13.726562 10.613281 -11.886719 10.644531 -10.703125 C 10.703125 -8.417969 9.515625 -7.175781 8.0625 -7.175781 C 7.828125 -7.175781 7.589844 -7.203125 7.351562 -7.234375 C 7.027344 -8.003906 6.820312 -8.863281 6.757812 -9.753906 C 6.671875 -11.175781 7.261719 -13.609375 8.65625 -13.726562 Z M 15.742188 -6.019531 C 14.914062 -4.742188 13.488281 -3.914062 12.097656 -3.824219 C 10.257812 -3.824219 8.894531 -4.65625 7.914062 -6.195312 C 8.417969 -5.960938 9.160156 -5.839844 9.992188 -5.839844 C 12.867188 -5.839844 16.957031 -7.234375 16.425781 -10.671875 C 16.15625 -12.511719 14.230469 -14.707031 9.28125 -14.707031 C 4.773438 -14.707031 0.445312 -12.183594 0.445312 -7.203125 C 0.445312 -2.757812 4.328125 0.265625 8.925781 0.265625 C 12.835938 0.265625 16.246094 -1.957031 17.164062 -5.367188 C 17.3125 -5.960938 16.839844 -6.375 16.367188 -6.375 C 16.128906 -6.375 15.890625 -6.253906 15.742188 -6.019531 Z M 15.742188 -6.019531 "/></g></g></g><g fill="#000000" fill-opacity="1"><g transform="translate(160.914533, 179.214862)"><g><path d="M 2.492188 -14.851562 L 2.492188 -4.683594 C 2.492188 -2.460938 0.414062 -2.222656 0.59375 -1.039062 C 0.769531 0 5.128906 0.0898438 5.988281 0.0898438 C 6.847656 0.0898438 11.207031 0.0585938 11.324219 -1.039062 C 11.414062 -2.253906 9.457031 -2.371094 9.457031 -4.683594 L 9.457031 -8.242188 L 9.605469 -8.242188 C 12.71875 -8.242188 12.007812 -5.21875 13.550781 -5.21875 C 14.707031 -5.21875 14.527344 -6.613281 14.527344 -7.53125 L 14.527344 -10.878906 C 14.527344 -11.800781 14.707031 -13.191406 13.550781 -13.191406 C 12.007812 -13.191406 12.71875 -10.140625 9.605469 -10.140625 L 9.457031 -10.140625 L 9.457031 -14.851562 C 9.457031 -16.898438 10.019531 -17.609375 11.027344 -17.730469 L 13.816406 -17.730469 C 16.929688 -17.730469 16.542969 -12.304688 18.085938 -12.332031 C 19.359375 -12.332031 19.269531 -14.765625 19.269531 -15.683594 C 19.269531 -16.632812 19.300781 -18.648438 18.234375 -19.09375 C 16.988281 -19.625 8.300781 -19.625 8.210938 -19.625 C 7.351562 -19.625 0.769531 -19.539062 0.59375 -18.5 C 0.414062 -17.3125 2.492188 -17.078125 2.492188 -14.851562 Z M 2.492188 -14.851562 "/></g></g></g><g fill="#000000" fill-opacity="1"><g transform="translate(180.623009, 179.214862)"><g><path d="M 10.96875 -1.601562 C 10.851562 -1.570312 10.761719 -1.570312 10.644531 -1.570312 C 9.28125 -1.570312 8.125 -3.765625 7.441406 -6.582031 C 6.699219 -9.574219 6.285156 -12.332031 7.769531 -12.6875 C 7.886719 -12.71875 8.003906 -12.71875 8.125 -12.71875 C 9.636719 -12.71875 10.644531 -10.167969 11.265625 -7.679688 C 12.035156 -4.773438 12.511719 -1.957031 10.96875 -1.601562 Z M 9.308594 -14.558594 C 4.476562 -14.558594 0.445312 -11.59375 0.445312 -7.144531 C 0.445312 -2.726562 4.476562 0.265625 9.308594 0.265625 C 14.113281 0.265625 18.175781 -2.726562 18.175781 -7.144531 C 18.175781 -11.5625 14.113281 -14.558594 9.308594 -14.558594 Z M 9.308594 -14.558594 "/></g></g></g><g fill="#000000" fill-opacity="1"><g transform="translate(199.234923, 179.214862)"><g><path d="M 18.351562 -11.917969 C 18.085938 -14.082031 16.246094 -15.355469 13.992188 -15.355469 C 11.652344 -15.355469 9.992188 -14.113281 8.894531 -12.066406 C 8.597656 -13.488281 8.359375 -14.941406 7.441406 -14.941406 C 7.203125 -14.941406 6.878906 -14.824219 6.492188 -14.558594 C 4.832031 -13.371094 3.882812 -12.957031 1.421875 -12.15625 C 0.207031 -11.769531 0.414062 -10.671875 1.511719 -10.4375 C 2.195312 -10.316406 2.519531 -9.605469 2.519531 -7.648438 L 2.519531 -4.625 C 2.519531 -2.402344 0.445312 -2.164062 0.621094 -1.007812 C 0.800781 0.03125 5.011719 0.117188 5.871094 0.117188 C 6.730469 0.117188 10.851562 0.0898438 10.941406 -1.007812 C 11.058594 -2.222656 9.101562 -2.34375 9.101562 -4.625 C 9.101562 -5.515625 9.101562 -6.285156 9.101562 -6.9375 C 9.070312 -9.902344 10.554688 -13.371094 12.570312 -13.371094 C 12.601562 -13.371094 12.660156 -13.371094 12.6875 -13.371094 C 13.933594 -13.253906 11.800781 -12.511719 11.828125 -10.820312 C 11.859375 -9.546875 12.71875 -8.242188 14.824219 -8.242188 C 14.972656 -8.242188 15.089844 -8.273438 15.238281 -8.273438 C 17.550781 -8.449219 18.558594 -10.347656 18.351562 -11.917969 Z M 18.351562 -11.917969 "/></g></g></g><g fill="#000000" fill-opacity="1"><g transform="translate(217.906106, 179.214862)"><g><path d="M 8.65625 -13.726562 C 10.109375 -13.726562 10.613281 -11.886719 10.644531 -10.703125 C 10.703125 -8.417969 9.515625 -7.175781 8.0625 -7.175781 C 7.828125 -7.175781 7.589844 -7.203125 7.351562 -7.234375 C 7.027344 -8.003906 6.820312 -8.863281 6.757812 -9.753906 C 6.671875 -11.175781 7.261719 -13.609375 8.65625 -13.726562 Z M 15.742188 -6.019531 C 14.914062 -4.742188 13.488281 -3.914062 12.097656 -3.824219 C 10.257812 -3.824219 8.894531 -4.65625 7.914062 -6.195312 C 8.417969 -5.960938 9.160156 -5.839844 9.992188 -5.839844 C 12.867188 -5.839844 16.957031 -7.234375 16.425781 -10.671875 C 16.15625 -12.511719 14.230469 -14.707031 9.28125 -14.707031 C 4.773438 -14.707031 0.445312 -12.183594 0.445312 -7.203125 C 0.445312 -2.757812 4.328125 0.265625 8.925781 0.265625 C 12.835938 0.265625 16.246094 -1.957031 17.164062 -5.367188 C 17.3125 -5.960938 16.839844 -6.375 16.367188 -6.375 C 16.128906 -6.375 15.890625 -6.253906 15.742188 -6.019531 Z M 15.742188 -6.019531 "/></g></g></g><g fill="#000000" fill-opacity="1"><g transform="translate(235.539997, 179.214862)"><g><path d="M 13.695312 -8.746094 C 12.363281 -9.429688 9.398438 -10.792969 8.863281 -11.058594 C 7.945312 -11.472656 7.5 -11.976562 7.5 -12.570312 C 7.5 -13.550781 8.597656 -13.785156 9.367188 -13.785156 C 10.257812 -13.785156 10.878906 -13.429688 11.382812 -12.539062 C 11.859375 -11.742188 12.214844 -10.316406 13.875 -10.167969 C 13.964844 -10.167969 14.054688 -10.167969 14.140625 -10.167969 C 15.355469 -10.167969 16.007812 -10.96875 15.921875 -11.828125 C 15.832031 -13.042969 13.933594 -14.675781 9.722656 -14.792969 C 6.996094 -14.792969 1.867188 -14.46875 1.304688 -10.941406 C 0.832031 -8.003906 3.914062 -6.402344 5.097656 -5.898438 C 6.019531 -5.484375 7.621094 -4.714844 8.003906 -4.535156 C 8.804688 -4.179688 11.207031 -3.351562 11.207031 -2.132812 C 11.207031 -1.394531 10.40625 -0.710938 9.042969 -0.710938 C 7.144531 -0.710938 6.226562 -1.660156 5.457031 -3.320312 C 4.921875 -4.476562 4.121094 -5.425781 2.875 -5.425781 C 2.726562 -5.425781 2.550781 -5.394531 2.371094 -5.367188 C 0.917969 -5.070312 0.238281 -4.003906 0.503906 -2.785156 C 0.859375 -1.039062 3.707031 0.414062 8.003906 0.414062 C 11.117188 0.414062 16.988281 -0.386719 17.105469 -4.535156 C 17.195312 -6.996094 14.707031 -8.242188 13.695312 -8.746094 Z M 13.695312 -8.746094 "/></g></g></g><g fill="#000000" fill-opacity="1"><g transform="translate(253.084979, 179.214862)"><g><path d="M 8.894531 -4.625 C 8.894531 -8.035156 8.863281 -9.011719 8.894531 -10.4375 C 8.925781 -12.183594 9.070312 -13.964844 7.769531 -13.964844 C 7.589844 -13.964844 7.410156 -13.933594 7.175781 -13.875 C 4.832031 -13.191406 3.855469 -12.957031 1.394531 -12.15625 C 0.207031 -11.800781 0.414062 -10.671875 1.480469 -10.464844 C 2.132812 -10.316406 2.460938 -9.605469 2.460938 -7.648438 L 2.460938 -4.625 C 2.460938 -2.402344 0.445312 -2.164062 0.621094 -1.007812 C 0.800781 0.03125 4.832031 0.117188 5.664062 0.117188 C 6.492188 0.117188 10.554688 0.0898438 10.644531 -1.007812 C 10.761719 -2.222656 8.894531 -2.34375 8.894531 -4.625 Z M 5.277344 -14.824219 C 7.472656 -14.824219 9.25 -16.246094 9.25 -18.027344 C 9.25 -19.773438 7.472656 -21.199219 5.277344 -21.199219 C 3.054688 -21.199219 1.273438 -19.773438 1.273438 -18.027344 C 1.273438 -16.246094 3.054688 -14.824219 5.277344 -14.824219 Z M 5.277344 -14.824219 "/></g></g></g><g fill="#000000" fill-opacity="1"><g transform="translate(264.317309, 179.214862)"><g><path d="M 11.949219 -4.121094 C 11.800781 -4.0625 11.621094 -4.0625 11.472656 -4.0625 C 10.167969 -4.0625 9.21875 -5.722656 8.507812 -7.886719 C 7.738281 -10.316406 7.175781 -12.539062 8.539062 -13.042969 C 8.714844 -13.105469 8.925781 -13.164062 9.070312 -13.164062 C 10.4375 -13.164062 11.265625 -11.027344 11.917969 -9.101562 C 12.71875 -6.789062 13.28125 -4.476562 11.949219 -4.121094 Z M 20.21875 -16.039062 C 20.546875 -17.375 19.835938 -18.5 18.261719 -18.53125 C 16.871094 -18.53125 16.128906 -17.609375 15.832031 -17.105469 C 15.328125 -16.21875 15.476562 -15.625 14.289062 -14.914062 C 13.726562 -14.585938 13.074219 -14.496094 12.421875 -14.496094 C 11.800781 -14.496094 11.207031 -14.585938 10.644531 -14.585938 C 10.613281 -14.585938 10.585938 -14.558594 10.554688 -14.558594 C 10.4375 -14.558594 10.316406 -14.558594 10.167969 -14.558594 C 5.070312 -14.558594 0.769531 -12.15625 0.769531 -8.597656 C 0.769531 -5.664062 3.675781 -3.527344 7.53125 -2.847656 C 6.316406 -2.609375 4.773438 -2.074219 4.773438 -0.859375 C 4.773438 0.652344 7.117188 1.039062 9.28125 1.15625 C 11.207031 1.273438 12.777344 1.75 12.71875 2.996094 C 12.660156 4.121094 11.296875 4.566406 10.347656 4.566406 C 5.960938 4.566406 5.484375 -0.03125 2.460938 -0.03125 C 0.324219 -0.03125 -0.890625 2.460938 0.769531 4.03125 C 2.636719 5.78125 6.640625 6.34375 9.546875 6.34375 C 12.71875 6.34375 19.597656 5.128906 19.863281 1.1875 C 19.980469 -0.59375 18.558594 -1.925781 15.832031 -1.925781 C 15.714844 -1.925781 15.59375 -1.925781 15.476562 -1.925781 C 12.925781 -1.839844 11.710938 -1.246094 9.84375 -1.125 C 9.785156 -1.125 9.695312 -1.125 9.636719 -1.125 C 9.042969 -1.125 8.65625 -1.335938 8.746094 -1.71875 C 8.894531 -2.34375 11 -2.636719 11.710938 -2.699219 C 11.769531 -2.699219 11.859375 -2.726562 11.917969 -2.726562 L 11.949219 -2.726562 C 16.246094 -3.203125 19.566406 -5.457031 19.566406 -8.597656 C 19.566406 -10.730469 18.027344 -12.480469 15.652344 -13.519531 C 19.0625 -13.757812 20.070312 -15.417969 20.21875 -16.039062 Z M 20.21875 -16.039062 "/></g></g></g><g fill="#000000" fill-opacity="1"><g transform="translate(285.063066, 179.214862)"><g><path d="M 19.597656 -4.625 C 19.625 -8.035156 19.597656 -8.507812 19.597656 -9.933594 C 19.597656 -12.6875 17.433594 -14.617188 14.320312 -14.617188 C 12.214844 -14.617188 10.257812 -13.90625 9.21875 -11.949219 C 9.21875 -14.199219 9.21875 -16.1875 9.25 -16.871094 C 9.28125 -18.5 9.488281 -20.605469 8.359375 -20.605469 C 8.125 -20.605469 7.828125 -20.488281 7.441406 -20.277344 C 5.1875 -19.003906 3.882812 -18.679688 1.421875 -17.878906 C 0.207031 -17.492188 0.414062 -16.367188 1.511719 -16.15625 C 2.195312 -16.007812 2.519531 -15.296875 2.519531 -13.339844 L 2.519531 -4.625 C 2.519531 -2.402344 0.445312 -2.164062 0.621094 -1.007812 C 0.800781 0.03125 5.011719 0.117188 5.871094 0.117188 C 6.730469 0.117188 10.96875 0.0898438 11.058594 -1.007812 C 11.175781 -2.222656 9.21875 -2.34375 9.21875 -4.625 C 9.21875 -5.484375 9.21875 -6.550781 9.21875 -7.738281 C 9.21875 -9.515625 9.8125 -11.976562 11.5625 -11.976562 C 12.984375 -11.976562 12.898438 -9.605469 12.898438 -7.648438 L 12.898438 -4.625 C 12.898438 -2.402344 13.191406 0.117188 16.246094 0.117188 C 17.105469 0.117188 21.347656 0.0898438 21.433594 -1.007812 C 21.523438 -2.222656 19.597656 -2.34375 19.597656 -4.625 Z M 19.597656 -4.625 "/></g></g></g><g fill="#000000" fill-opacity="1"><g transform="translate(307.08319, 179.214862)"><g><path d="M 0.296875 -12.75 L 0.296875 -12.066406 C 0.296875 -11.742188 0.5625 -11.472656 0.890625 -11.472656 L 2.3125 -11.472656 C 2.3125 -9.960938 2.28125 -5.039062 2.3125 -4.328125 C 2.34375 -1.304688 4.328125 0.445312 7.621094 0.445312 C 9.191406 0.445312 10.910156 0.0585938 11.976562 -1.15625 C 12.363281 -1.628906 11.976562 -2.28125 11.414062 -2.28125 C 11.324219 -2.28125 11.265625 -2.28125 11.175781 -2.253906 C 11.058594 -2.195312 10.910156 -2.195312 10.761719 -2.195312 C 9.042969 -2.34375 9.308594 -4.65625 9.308594 -6.640625 L 9.308594 -11.472656 L 11.742188 -11.472656 C 12.066406 -11.472656 12.332031 -11.742188 12.332031 -12.066406 L 12.332031 -12.75 C 12.332031 -13.074219 12.066406 -13.339844 11.742188 -13.339844 L 9.308594 -13.339844 L 9.308594 -18.382812 C 9.308594 -18.855469 8.925781 -19.121094 8.507812 -19.121094 C 8.273438 -19.121094 8.035156 -19.035156 7.855469 -18.796875 C 6.253906 -16.542969 3.675781 -13.519531 0.890625 -13.339844 C 0.5625 -13.339844 0.296875 -13.074219 0.296875 -12.75 Z M 0.296875 -12.75 "/></g></g></g></svg>